<svg width="48" height="28" viewBox="0 0 48 28" fill="none" xmlns="http://www.w3.org/2000/svg">
<g id=" Size=24">
<rect id="BASE" x="0.5" y="0.5" width="47" height="27" rx="3.5" fill="white" stroke="#D9D9D9"/>
<path id="ApplePay" d="M37.6356 16.6553H37.6698L39.5829 11.3301H41.2352L38.3817 18.2227C37.7304 19.8011 36.9847 20.3212 35.4002 20.3213C35.2794 20.3213 34.8762 20.3102 34.7821 20.2871V19.2051C34.8827 19.2166 35.131 19.2285 35.2586 19.2285C35.9771 19.2285 36.3803 18.9685 36.6288 18.292L36.7762 17.8926L34.0233 11.3301H35.7225L37.6356 16.6553ZM13.7245 10.5322C14.087 10.5554 15.135 10.6473 15.8065 11.5029C15.7528 11.5376 14.5636 12.1279 14.577 13.3652C14.5904 14.8386 16.0675 15.3326 16.0946 15.3486C16.0808 15.3843 15.8596 16.0488 15.3163 16.7305C14.8395 17.3318 14.3491 17.922 13.5702 17.9336C12.8181 17.9452 12.5692 17.5459 11.703 17.5459C10.8439 17.546 10.5619 17.9221 9.85043 17.9453C9.09851 17.9684 8.52733 17.3093 8.05063 16.708C7.07704 15.4938 6.3318 13.2848 7.33871 11.793C7.8289 11.047 8.72224 10.578 9.68246 10.5664C10.4208 10.5549 11.0988 10.9891 11.5487 10.9893C11.9918 10.9893 12.7911 10.486 13.7245 10.5322ZM30.3241 11.2432C32.184 11.2432 33.3924 12.0818 33.3924 13.3828V17.8701H31.8885V16.7881H31.8553C31.4256 17.4935 30.4784 17.9394 29.4579 17.9395C27.947 17.9395 26.8924 17.1641 26.8924 15.9961C26.8925 14.8398 27.9131 14.1745 29.7997 14.0762L31.828 13.9727V13.4756C31.828 12.7413 31.2708 12.3419 30.2772 12.3418C29.4582 12.3418 28.8602 12.7059 28.7391 13.2607H27.2752C27.3226 12.0929 28.5986 11.2432 30.3241 11.2432ZM23.0448 8.85547C25.0726 8.85547 26.49 10.0577 26.4901 11.8154C26.4901 13.5733 25.0458 14.7881 22.9911 14.7881H20.742V17.8701H19.117V8.85547H23.0448ZM30.0213 15.0137C29.0076 15.0658 28.4774 15.3953 28.4774 15.9619C28.4776 16.5111 29.0283 16.8691 29.8944 16.8691C30.9955 16.869 31.828 16.268 31.828 15.4238V14.915L30.0213 15.0137ZM20.742 13.6143H22.6092C24.0258 13.6141 24.8319 12.9603 24.8319 11.8213C24.8318 10.6822 24.0252 10.0352 22.6151 10.0352H20.742V13.6143ZM13.7313 8.16699C13.7984 8.74523 13.5366 9.31226 13.1405 9.73438C12.7376 10.1448 12.0926 10.4681 11.4481 10.4219C11.3677 9.8669 11.6834 9.27733 12.0526 8.91309C12.4555 8.49099 13.1605 8.19014 13.7313 8.16699Z" fill="black"/>
</g>
</svg>
