<svg width="56" height="38" viewBox="0 0 56 38" fill="none" xmlns="http://www.w3.org/2000/svg">
<rect x="10.5" y="1" width="33" height="21" rx="2" fill="white" stroke="#D9D9D9"/>
<path fill-rule="evenodd" clip-rule="evenodd" d="M20.3838 15.4037H18.3241L16.7795 9.84334C16.7062 9.58756 16.5506 9.36144 16.3216 9.25486C15.7502 8.98704 15.1205 8.77389 14.4336 8.66639V8.45231H17.7517C18.2096 8.45231 18.5531 8.77389 18.6103 9.14736L19.4117 13.1583L21.4705 8.45231H23.473L20.3838 15.4037ZM24.6181 15.4037H22.6729L24.2746 8.45227H26.2199L24.6181 15.4037ZM28.7363 10.3781C28.7935 10.0037 29.137 9.78959 29.5377 9.78959C30.1674 9.73584 30.8533 9.84334 31.4257 10.1102L31.7692 8.61357C31.1967 8.39949 30.5671 8.29199 29.9956 8.29199C28.1076 8.29199 26.7338 9.25487 26.7338 10.5912C26.7338 11.6078 27.7069 12.1416 28.3938 12.4632C29.137 12.7839 29.4232 12.9979 29.366 13.3186C29.366 13.7996 28.7935 14.0136 28.2221 14.0136C27.5352 14.0136 26.8483 13.8533 26.2196 13.5855L25.8762 15.0831C26.5631 15.35 27.3062 15.4575 27.9931 15.4575C30.1101 15.5103 31.4257 14.5484 31.4257 13.1045C31.4257 11.2863 28.7363 11.1797 28.7363 10.3781ZM38.2333 15.4037L36.6887 8.45227H35.0297C34.6862 8.45227 34.3428 8.66635 34.2283 8.98699L31.3682 15.4037H33.3707L33.7704 14.388H36.2308L36.4598 15.4037H38.2333ZM35.3165 10.3243L35.8879 12.9442H34.2861L35.3165 10.3243Z" fill="#172B85"/>
<rect x="22.5" y="16" width="33" height="21" rx="2" fill="white" stroke="#D9D9D9"/>
<path d="M44.1377 19.6143C48.2407 19.6144 51.5664 22.6577 51.5664 26.4111C51.5661 30.1644 48.2405 33.2069 44.1377 33.207C42.2982 33.207 40.6158 32.594 39.3184 31.5811C38.021 32.5939 36.3392 33.207 34.5 33.207C30.397 33.207 27.0706 30.1645 27.0703 26.4111C27.0703 22.6576 30.3969 19.6143 34.5 19.6143C36.339 19.6143 38.0211 20.2267 39.3184 21.2393C40.6158 20.2265 42.2985 19.6143 44.1377 19.6143Z" fill="#ED0006"/>
<path d="M44.1396 19.6143C48.2426 19.6144 51.5684 22.6577 51.5684 26.4111C51.5681 30.1644 48.2425 33.2069 44.1396 33.207C42.3002 33.207 40.6178 32.594 39.3203 31.5811C40.917 30.3346 41.9305 28.4819 41.9307 26.4111C41.9307 24.34 40.9175 22.4858 39.3203 21.2393C40.6177 20.2265 42.3004 19.6143 44.1396 19.6143Z" fill="#F9A000"/>
<path d="M39.3174 21.2402C40.9144 22.4868 41.9277 24.3401 41.9277 26.4111C41.9277 28.4819 40.9141 30.3345 39.3174 31.5811C37.7208 30.3345 36.707 28.4819 36.707 26.4111C36.707 24.3402 37.7205 22.4868 39.3174 21.2402Z" fill="#FF5E00"/>
</svg>
