<svg width="120" height="37" viewBox="0 0 120 37" fill="none" xmlns="http://www.w3.org/2000/svg">
<path d="M119.333 32.275C119.333 34.1935 117.805 35.7475 115.916 35.7475H4.08764C2.19902 35.7475 0.666016 34.1935 0.666016 32.275V4.58298C0.666016 2.66541 2.19902 1.10596 4.08764 1.10596H115.915C117.805 1.10596 119.332 2.66541 119.332 4.58298L119.333 32.275Z" fill="black"/>
<path d="M115.556 1.14788C117.613 1.14788 119.288 2.84326 119.288 4.92676V31.9268C119.288 34.0103 117.613 35.7056 115.556 35.7056H4.44444C2.38667 35.7056 0.712222 34.0103 0.712222 31.9268V4.92676C0.712222 2.84326 2.38667 1.14788 4.44444 1.14788H115.556ZM115.556 0.42676H4.44444C2.00111 0.42676 0 2.45288 0 4.92676V31.9268C0 34.4006 2.00111 36.4268 4.44444 36.4268H115.556C117.999 36.4268 120 34.4006 120 31.9268V4.92676C120 2.45288 117.999 0.42676 115.556 0.42676Z" fill="#A6A6A6"/>
<path d="M26.78 18.2323C26.7542 15.3316 29.1258 13.9204 29.2342 13.8547C27.8911 11.872 25.8093 11.6011 25.0778 11.5795C23.3293 11.3932 21.6333 12.6388 20.7426 12.6388C19.8342 12.6388 18.4626 11.5975 16.9844 11.6281C15.0822 11.6578 13.3026 12.7729 12.3266 14.5045C10.3124 18.0352 11.8146 23.2237 13.7444 26.0776C14.7098 27.4753 15.8378 29.0359 17.3142 28.981C18.7586 28.9207 19.2982 28.0486 21.0413 28.0486C22.7684 28.0486 23.2751 28.981 24.7809 28.9459C26.3311 28.9207 27.3071 27.5419 28.2386 26.1316C29.3542 24.5296 29.8022 22.9519 29.82 22.8709C29.7835 22.8583 26.8093 21.709 26.78 18.2323Z" fill="white"/>
<path d="M23.9355 9.70207C24.7124 8.71837 25.244 7.38007 25.0964 6.02197C23.972 6.07237 22.5658 6.80947 21.756 7.77157C21.0395 8.61937 20.3995 10.009 20.5649 11.3158C21.828 11.4112 23.1249 10.6705 23.9355 9.70207Z" fill="white"/>
<path d="M47.6849 28.7804H45.6662L44.5605 25.2623H40.7169L39.6636 28.7804H37.6982L41.5062 16.8032H43.8582L47.6849 28.7804ZM44.2271 23.7863L43.2271 20.6588C43.1214 20.3393 42.9231 19.5869 42.6307 18.4025H42.5951C42.4787 18.9119 42.2911 19.6643 42.0334 20.6588L41.0511 23.7863H44.2271Z" fill="white"/>
<path d="M57.4769 24.3561C57.4769 25.8249 57.0849 26.9859 56.3009 27.8382C55.5987 28.5969 54.7267 28.9758 53.6858 28.9758C52.5622 28.9758 51.7551 28.5672 51.2636 27.75H51.228V32.2995H49.3329V22.9872C49.3329 22.0638 49.3089 21.1161 49.2627 20.1441H50.9294L51.0351 21.513H51.0707C51.7027 20.4816 52.6618 19.9668 53.9489 19.9668C54.9551 19.9668 55.7951 20.3691 56.4671 21.1746C57.1409 21.981 57.4769 23.0412 57.4769 24.3561ZM55.5463 24.4263C55.5463 23.5857 55.3596 22.8927 54.9845 22.3473C54.5747 21.7785 54.0245 21.4941 53.3347 21.4941C52.8671 21.4941 52.4422 21.6525 52.0627 21.9648C51.6822 22.2798 51.4334 22.6911 51.3169 23.2005C51.2582 23.4381 51.2289 23.6325 51.2289 23.7855V25.2255C51.2289 25.8537 51.4191 26.3838 51.7996 26.8167C52.18 27.2496 52.6743 27.4656 53.2822 27.4656C53.996 27.4656 54.5516 27.1866 54.9489 26.6304C55.3471 26.0733 55.5463 25.3389 55.5463 24.4263Z" fill="white"/>
<path d="M67.2885 24.3561C67.2885 25.8249 66.8965 26.9859 66.1116 27.8382C65.4103 28.5969 64.5383 28.9758 63.4974 28.9758C62.3739 28.9758 61.5668 28.5672 61.0761 27.75H61.0405V32.2995H59.1454V22.9872C59.1454 22.0638 59.1214 21.1161 59.0752 20.1441H60.7419L60.8476 21.513H60.8832C61.5143 20.4816 62.4734 19.9668 63.7614 19.9668C64.7668 19.9668 65.6068 20.3691 66.2805 21.1746C66.9516 21.981 67.2885 23.0412 67.2885 24.3561ZM65.3579 24.4263C65.3579 23.5857 65.1703 22.8927 64.7952 22.3473C64.3854 21.7785 63.837 21.4941 63.1463 21.4941C62.6779 21.4941 62.2539 21.6525 61.8734 21.9648C61.493 22.2798 61.245 22.6911 61.1285 23.2005C61.0707 23.4381 61.0405 23.6325 61.0405 23.7855V25.2255C61.0405 25.8537 61.2307 26.3838 61.6094 26.8167C61.9899 27.2487 62.4841 27.4656 63.0939 27.4656C63.8076 27.4656 64.3632 27.1866 64.7605 26.6304C65.1588 26.0733 65.3579 25.3389 65.3579 24.4263Z" fill="white"/>
<path d="M78.2576 25.4218C78.2576 26.4406 77.9083 27.2695 77.2069 27.9094C76.4363 28.6087 75.3634 28.9579 73.9847 28.9579C72.7118 28.9579 71.6914 28.7095 70.9189 28.2118L71.3581 26.6125C72.1901 27.1219 73.1029 27.3775 74.0976 27.3775C74.8114 27.3775 75.3669 27.2137 75.7661 26.8879C76.1634 26.5621 76.3616 26.1247 76.3616 25.5793C76.3616 25.0933 76.1981 24.6838 75.8701 24.3517C75.5438 24.0196 74.9989 23.7109 74.2381 23.4256C72.1669 22.6435 71.1323 21.4978 71.1323 19.9912C71.1323 19.0066 71.4949 18.1993 72.2212 17.5711C72.9447 16.942 73.9101 16.6279 75.1172 16.6279C76.1936 16.6279 77.0878 16.8178 77.8016 17.1967L77.3278 18.7609C76.6612 18.3937 75.9074 18.2101 75.0638 18.2101C74.3972 18.2101 73.8763 18.3766 73.5029 18.7078C73.1874 19.0039 73.0292 19.3648 73.0292 19.7923C73.0292 20.2657 73.2096 20.6572 73.5723 20.965C73.8878 21.2494 74.4612 21.5572 75.2932 21.8893C76.3109 22.3042 77.0585 22.7893 77.5394 23.3455C78.0185 23.8999 78.2576 24.5938 78.2576 25.4218Z" fill="white"/>
<path d="M84.5238 21.5841H82.4349V25.7772C82.4349 26.8437 82.8029 27.3765 83.5407 27.3765C83.8793 27.3765 84.1602 27.3468 84.3824 27.2874L84.4349 28.7445C84.0615 28.8858 83.57 28.9569 82.9611 28.9569C82.2127 28.9569 81.6278 28.7256 81.2055 28.2639C80.7851 27.8013 80.5735 27.0255 80.5735 25.9356V21.5823H79.3291V20.1423H80.5735V18.561L82.4349 17.9922V20.1423H84.5238V21.5841Z" fill="white"/>
<path d="M93.9484 24.3913C93.9484 25.7188 93.5733 26.8087 92.8249 27.661C92.04 28.5385 90.9982 28.9759 89.6995 28.9759C88.448 28.9759 87.4515 28.5556 86.7084 27.715C85.9653 26.8744 85.5938 25.8133 85.5938 24.5344C85.5938 23.1961 85.976 22.0999 86.7431 21.2476C87.5084 20.3944 88.5413 19.9678 89.84 19.9678C91.0915 19.9678 92.0986 20.3881 92.8586 21.2296C93.5857 22.0459 93.9484 23.0998 93.9484 24.3913ZM91.9822 24.4534C91.9822 23.6569 91.8142 22.9738 91.4737 22.4041C91.0764 21.7147 90.5084 21.3709 89.7724 21.3709C89.0106 21.3709 88.432 21.7156 88.0346 22.4041C87.6942 22.9747 87.5262 23.6686 87.5262 24.4894C87.5262 25.2859 87.6942 25.969 88.0346 26.5378C88.4444 27.2272 89.0169 27.571 89.7555 27.571C90.4791 27.571 91.0471 27.22 91.4569 26.5198C91.8062 25.9393 91.9822 25.249 91.9822 24.4534Z" fill="white"/>
<path d="M100.109 21.8316C99.9209 21.7965 99.7209 21.7785 99.5112 21.7785C98.8445 21.7785 98.3289 22.0332 97.9663 22.5435C97.6507 22.9935 97.4925 23.5623 97.4925 24.249V28.7805H95.5983L95.616 22.8639C95.616 21.8685 95.592 20.9622 95.5449 20.145H97.1956L97.2649 21.7974H97.3174C97.5174 21.2295 97.8329 20.7723 98.2649 20.4294C98.6872 20.1207 99.1432 19.9668 99.6347 19.9668C99.8098 19.9668 99.9681 19.9794 100.109 20.0019V21.8316Z" fill="white"/>
<path d="M108.583 24.0538C108.583 24.3976 108.561 24.6874 108.514 24.9241H102.829C102.851 25.7773 103.126 26.4298 103.654 26.8798C104.133 27.2821 104.752 27.4837 105.513 27.4837C106.355 27.4837 107.123 27.3478 107.814 27.0751L108.11 28.4071C107.303 28.7635 106.35 28.9408 105.251 28.9408C103.928 28.9408 102.89 28.5466 102.134 27.7591C101.381 26.9716 101.003 25.9141 101.003 24.5875C101.003 23.2852 101.354 22.2007 102.057 21.3358C102.793 20.4124 103.788 19.9507 105.039 19.9507C106.269 19.9507 107.199 20.4124 107.831 21.3358C108.332 22.0693 108.583 22.9765 108.583 24.0538ZM106.776 23.5561C106.789 22.9873 106.665 22.4959 106.408 22.081C106.08 21.5473 105.576 21.2809 104.898 21.2809C104.278 21.2809 103.774 21.541 103.39 22.063C103.074 22.4779 102.886 22.9756 102.829 23.5552H106.776V23.5561Z" fill="white"/>
<path d="M43.6001 9.43508C43.6001 10.4944 43.2864 11.2918 42.6597 11.8273C42.0792 12.3214 41.2544 12.5689 40.1859 12.5689C39.6561 12.5689 39.2028 12.5455 38.8232 12.4987V6.71078C39.3184 6.62978 39.8517 6.58838 40.4277 6.58838C41.4455 6.58838 42.2126 6.81248 42.7299 7.26068C43.3095 7.76738 43.6001 8.49188 43.6001 9.43508ZM42.6179 9.46118C42.6179 8.77448 42.4384 8.24798 42.0792 7.88078C41.7201 7.51448 41.1957 7.33088 40.505 7.33088C40.2117 7.33088 39.9619 7.35068 39.7548 7.39208V11.7922C39.8695 11.8102 40.0792 11.8183 40.3841 11.8183C41.097 11.8183 41.6472 11.6176 42.0348 11.2162C42.4224 10.8148 42.6179 10.2298 42.6179 9.46118Z" fill="white"/>
<path d="M48.8081 10.3601C48.8081 11.0126 48.6241 11.5472 48.2561 11.9666C47.8703 12.3977 47.3592 12.6128 46.721 12.6128C46.1059 12.6128 45.6161 12.4067 45.2508 11.9927C44.8863 11.5796 44.7041 11.0585 44.7041 10.4303C44.7041 9.7733 44.8917 9.2342 45.2685 8.8157C45.6454 8.3972 46.1521 8.1875 46.7903 8.1875C47.4054 8.1875 47.8997 8.3936 48.2739 8.8067C48.6294 9.2081 48.8081 9.7265 48.8081 10.3601ZM47.8419 10.3907C47.8419 9.9992 47.7583 9.6635 47.5921 9.3836C47.3965 9.0452 47.1183 8.876 46.7565 8.876C46.3823 8.876 46.0979 9.0452 45.9023 9.3836C45.7352 9.6635 45.6525 10.0046 45.6525 10.4078C45.6525 10.7993 45.7361 11.135 45.9023 11.4149C46.1041 11.7533 46.385 11.9225 46.7477 11.9225C47.1032 11.9225 47.3823 11.7506 47.5832 11.4059C47.7557 11.1206 47.8419 10.7822 47.8419 10.3907Z" fill="white"/>
<path d="M55.7908 8.27441L54.4797 12.517H53.6264L53.0833 10.6747C52.9455 10.2148 52.8335 9.75761 52.7464 9.30401H52.7295C52.6486 9.77021 52.5366 10.2265 52.3926 10.6747L51.8157 12.517H50.9526L49.7197 8.27441H50.6771L51.1508 10.2913C51.2655 10.7683 51.3597 11.2228 51.4353 11.653H51.4522C51.5215 11.2984 51.6362 10.8466 51.7979 10.3003L52.3926 8.27531H53.1517L53.7215 10.2571C53.8593 10.7404 53.9713 11.2057 54.0575 11.6539H54.0833C54.1464 11.2174 54.2415 10.7521 54.3677 10.2571L54.8762 8.27531H55.7908V8.27441Z" fill="white"/>
<path d="M60.6201 12.5163H59.6886V10.0863C59.6886 9.33747 59.4077 8.96307 58.8441 8.96307C58.5677 8.96307 58.3446 9.06567 58.1713 9.27177C57.9997 9.47787 57.9126 9.72087 57.9126 9.99897V12.5154H56.981V9.48597C56.981 9.11337 56.9695 8.70927 56.9473 8.27187H57.7659L57.8095 8.93517H57.8353C57.9437 8.72907 58.1055 8.55897 58.3179 8.42307C58.5704 8.26467 58.853 8.18457 59.1624 8.18457C59.5535 8.18457 59.8788 8.31237 60.1375 8.56887C60.4593 8.88297 60.6201 9.35187 60.6201 9.97467V12.5163Z" fill="white"/>
<path d="M63.1894 12.5169H62.2588V6.32764H63.1894V12.5169Z" fill="white"/>
<path d="M68.6743 10.3601C68.6743 11.0126 68.4903 11.5472 68.1223 11.9666C67.7365 12.3977 67.2245 12.6128 66.5872 12.6128C65.9712 12.6128 65.4814 12.4067 65.117 11.9927C64.7525 11.5796 64.5703 11.0585 64.5703 10.4303C64.5703 9.7733 64.7579 9.2342 65.1348 8.8157C65.5116 8.3972 66.0183 8.1875 66.6556 8.1875C67.2716 8.1875 67.765 8.3936 68.1401 8.8067C68.4956 9.2081 68.6743 9.7265 68.6743 10.3601ZM67.7072 10.3907C67.7072 9.9992 67.6236 9.6635 67.4574 9.3836C67.2628 9.0452 66.9836 8.876 66.6228 8.876C66.2476 8.876 65.9632 9.0452 65.7685 9.3836C65.6014 9.6635 65.5188 10.0046 65.5188 10.4078C65.5188 10.7993 65.6023 11.135 65.7685 11.4149C65.9703 11.7533 66.2512 11.9225 66.6139 11.9225C66.9694 11.9225 67.2476 11.7506 67.4485 11.4059C67.6219 11.1206 67.7072 10.7822 67.7072 10.3907Z" fill="white"/>
<path d="M73.1832 12.5165H72.3467L72.2774 12.0278H72.2516C71.9654 12.4175 71.5574 12.6128 71.0276 12.6128C70.6321 12.6128 70.3121 12.4841 70.0712 12.2285C69.8525 11.9963 69.7432 11.7074 69.7432 11.3645C69.7432 10.8461 69.9565 10.451 70.3858 10.1774C70.8143 9.9038 71.4169 9.7697 72.1929 9.776V9.6968C72.1929 9.1379 71.9032 8.8589 71.3227 8.8589C70.9094 8.8589 70.5449 8.9642 70.2303 9.173L70.0409 8.5538C70.4303 8.3099 70.9112 8.1875 71.4783 8.1875C72.5734 8.1875 73.1227 8.7725 73.1227 9.9425V11.5049C73.1227 11.9288 73.1432 12.2663 73.1832 12.5165ZM72.216 11.0585V10.4042C71.1885 10.3862 70.6747 10.6715 70.6747 11.2592C70.6747 11.4806 70.7334 11.6462 70.8534 11.7569C70.9734 11.8676 71.1263 11.9225 71.3085 11.9225C71.5129 11.9225 71.7041 11.8568 71.8783 11.7263C72.0534 11.5949 72.1609 11.4284 72.2009 11.2241C72.2107 11.1782 72.216 11.1224 72.216 11.0585Z" fill="white"/>
<path d="M78.4766 12.5169H77.6499L77.6063 11.8356H77.5806C77.3166 12.354 76.8668 12.6132 76.2348 12.6132C75.7299 12.6132 75.3094 12.4125 74.9761 12.0111C74.6428 11.6097 74.4766 11.0886 74.4766 10.4487C74.4766 9.76204 74.657 9.20584 75.0197 8.78104C75.3708 8.38504 75.801 8.18704 76.313 8.18704C76.8757 8.18704 77.2694 8.37874 77.4934 8.76304H77.5112V6.32764H78.4437V11.3739C78.4437 11.787 78.4543 12.1677 78.4766 12.5169ZM77.5112 10.7277V10.0203C77.5112 9.89794 77.5023 9.79894 77.4854 9.72334C77.433 9.49654 77.3201 9.30574 77.1486 9.15184C76.9752 8.99794 76.7663 8.92054 76.5254 8.92054C76.1779 8.92054 75.9059 9.06004 75.7059 9.33994C75.5077 9.61984 75.4072 9.97714 75.4072 10.4136C75.4072 10.833 75.5023 11.1732 75.6934 11.4351C75.8952 11.7141 76.1672 11.8536 76.5077 11.8536C76.8134 11.8536 77.0579 11.7375 77.2437 11.5044C77.4232 11.2893 77.5112 11.0301 77.5112 10.7277Z" fill="white"/>
<path d="M86.4438 10.3601C86.4438 11.0126 86.2598 11.5472 85.8918 11.9666C85.5061 12.3977 84.9958 12.6128 84.3567 12.6128C83.7425 12.6128 83.2527 12.4067 82.8865 11.9927C82.5221 11.5796 82.3398 11.0585 82.3398 10.4303C82.3398 9.7733 82.5274 9.2342 82.9043 8.8157C83.2812 8.3972 83.7878 8.1875 84.427 8.1875C85.0412 8.1875 85.5363 8.3936 85.9096 8.8067C86.2652 9.2081 86.4438 9.7265 86.4438 10.3601ZM85.4785 10.3907C85.4785 9.9992 85.395 9.6635 85.2287 9.3836C85.0323 9.0452 84.755 8.876 84.3923 8.876C84.019 8.876 83.7345 9.0452 83.5381 9.3836C83.371 9.6635 83.2883 10.0046 83.2883 10.4078C83.2883 10.7993 83.3718 11.135 83.5381 11.4149C83.7398 11.7533 84.0207 11.9225 84.3834 11.9225C84.739 11.9225 85.019 11.7506 85.2198 11.4059C85.3914 11.1206 85.4785 10.7822 85.4785 10.3907Z" fill="white"/>
<path d="M91.4523 12.5163H90.5216V10.0863C90.5216 9.33747 90.2407 8.96307 89.6763 8.96307C89.3998 8.96307 89.1767 9.06567 89.0043 9.27177C88.8318 9.47787 88.7456 9.72087 88.7456 9.99897V12.5154H87.8132V9.48597C87.8132 9.11337 87.8025 8.70927 87.7803 8.27187H88.598L88.6416 8.93517H88.6674C88.7767 8.72907 88.9385 8.55897 89.15 8.42307C89.4034 8.26467 89.6852 8.18457 89.9954 8.18457C90.3856 8.18457 90.7109 8.31237 90.9696 8.56887C91.2923 8.88297 91.4523 9.35187 91.4523 9.97467V12.5163Z" fill="white"/>
<path d="M97.7209 8.98038H96.6952V11.0414C96.6952 11.5652 96.8774 11.8271 97.2383 11.8271C97.4054 11.8271 97.5441 11.8127 97.6534 11.783L97.6774 12.4985C97.4934 12.5687 97.2516 12.6038 96.9538 12.6038C96.5858 12.6038 96.2996 12.4904 96.0925 12.2636C95.8845 12.0368 95.7814 11.6552 95.7814 11.1197V8.98038H95.1689V8.27388H95.7814V7.49629L96.6943 7.21729V8.27299H97.72V8.98038H97.7209Z" fill="white"/>
<path d="M102.653 12.5169H101.72V10.1049C101.72 9.34444 101.439 8.96374 100.877 8.96374C100.445 8.96374 100.15 9.18424 99.9879 9.62524C99.9603 9.71794 99.9443 9.83134 99.9443 9.96454V12.516H99.0137V6.32764H99.9443V8.88454H99.9621C100.255 8.41924 100.676 8.18704 101.221 8.18704C101.607 8.18704 101.926 8.31484 102.179 8.57134C102.495 8.89084 102.653 9.36604 102.653 9.99424V12.5169Z" fill="white"/>
<path d="M107.74 10.1948C107.74 10.364 107.728 10.5062 107.705 10.6223H104.912C104.924 11.0417 105.057 11.3612 105.316 11.5826C105.552 11.7806 105.857 11.8796 106.231 11.8796C106.644 11.8796 107.021 11.813 107.36 11.6789L107.506 12.3341C107.109 12.5087 106.641 12.596 106.1 12.596C105.451 12.596 104.94 12.4025 104.57 12.0155C104.199 11.6285 104.015 11.1092 104.015 10.4576C104.015 9.81769 104.186 9.28489 104.532 8.86009C104.893 8.40649 105.381 8.17969 105.997 8.17969C106.6 8.17969 107.057 8.40649 107.367 8.86009C107.616 9.22009 107.74 9.66559 107.74 10.1948ZM106.851 9.95089C106.858 9.67099 106.797 9.42979 106.671 9.22639C106.509 8.96449 106.263 8.83309 105.929 8.83309C105.625 8.83309 105.377 8.96089 105.188 9.21739C105.033 9.42169 104.942 9.66559 104.912 9.95089H106.851Z" fill="white"/>
</svg>
