<svg width="150" height="140" viewBox="0 0 150 140" fill="none" xmlns="http://www.w3.org/2000/svg">
<path d="M76.4734 6.67949C71.1022 8.86858 68.1296 10.1889 62.7772 12.4231C58.3229 14.2824 52.214 16.8141 48.5738 18.3211C46.5085 19.1761 44.4673 20.0834 42.4493 21.0447L36.3989 23.9267C31.415 26.3007 26.7263 29.2504 22.4287 32.7154L20.9764 33.8864C16.1946 37.7418 12.0459 42.3221 8.68095 47.4608L6.87421 50.22C4.27627 54.1875 2.39888 58.5823 1.32842 63.2023C0.965908 64.7669 0.694805 66.3512 0.541445 67.9499C0.367244 69.7658 0.14877 72.2638 0.0633146 74.1667C-0.0907838 77.598 0.060022 81.9362 0.262778 85.5667C0.532371 90.3939 1.65997 95.1231 3.38718 99.6388L4.55677 102.697C5.87706 106.148 7.76144 109.357 10.133 112.191C12.5336 115.06 15.3993 117.506 18.6105 119.425L20.9679 120.833L21.9584 121.359C28.4951 124.832 35.3116 127.749 42.3362 130.081C46.8296 131.573 51.3947 132.83 56.0406 133.742C61.5807 134.829 69.6332 136.312 77.1942 137.346C79.385 137.646 81.9629 137.968 84.473 138.27C91.6248 139.129 98.825 139.5 106.028 139.5L107.541 139.363C111.782 138.979 115.913 137.808 119.724 135.91L120.294 135.627C127.527 132.025 133.955 126.991 139.187 120.833C142.534 116.072 145.249 110.873 146.837 105.274C147.214 103.945 147.566 102.623 147.837 101.449C148.041 100.57 148.239 99.6005 148.429 98.5985C149.691 91.9268 150 85.1204 150 78.3305C150 67.4459 149.049 56.5484 146.269 46.0249C145.615 43.5491 144.923 41.1116 144.233 38.9872C143.598 37.0308 142.713 34.5588 141.978 32.5559C141.093 30.1409 139.986 27.8152 138.706 25.5841C136.159 21.145 132.934 17.1313 129.148 13.6882L124.133 9.12813C120.285 5.62865 115.679 3.0669 110.677 1.64326C105.721 0.233184 100.509 -0.0226676 95.4394 0.89535L91.9844 1.52099C88.8597 2.08684 85.7981 2.95391 82.8463 4.12491C80.7899 4.94066 78.3848 5.90047 76.4734 6.67949Z" fill="#F0E9DF"/>
</svg>
