<svg width="120" height="37" viewBox="0 0 120 37" fill="none" xmlns="http://www.w3.org/2000/svg">
<path d="M115.556 36.4268H4.44444C2.00111 36.4268 0 34.4006 0 31.9268V4.92677C0 2.45289 2.00111 0.426767 4.44444 0.426767H115.556C117.999 0.426767 120 2.45289 120 4.92677V31.9268C120 34.4006 117.999 36.4268 115.556 36.4268Z" fill="black"/>
<path d="M115.556 1.14789C117.613 1.14789 119.288 2.84327 119.288 4.92677V31.9268C119.288 34.0103 117.613 35.7056 115.556 35.7056H4.44444C2.38667 35.7056 0.712222 34.0103 0.712222 31.9268V4.92677C0.712222 2.84327 2.38667 1.14789 4.44444 1.14789H115.556ZM115.556 0.426767H4.44444C2.00111 0.426767 0 2.45289 0 4.92677V31.9268C0 34.4006 2.00111 36.4268 4.44444 36.4268H115.556C117.999 36.4268 120 34.4006 120 31.9268V4.92677C120 2.45289 117.999 0.426767 115.556 0.426767Z" fill="#A6A6A6"/>
<path d="M42.1489 9.64586C42.1489 10.3974 41.9267 10.9992 41.4889 11.4481C40.9856 11.9802 40.33 12.248 39.5267 12.248C38.7589 12.248 38.1034 11.9757 37.5656 11.4391C37.0267 10.8946 36.7578 10.2264 36.7578 9.42648C36.7578 8.62661 37.0267 7.95836 37.5656 7.41836C38.1034 6.87723 38.7589 6.60498 39.5267 6.60498C39.9089 6.60498 40.2734 6.68486 40.6211 6.83336C40.9678 6.98298 41.25 7.18548 41.4545 7.43523L40.99 7.90998C40.6334 7.48361 40.1478 7.27323 39.5267 7.27323C38.9667 7.27323 38.4811 7.47123 38.0689 7.87061C37.6611 8.27111 37.4567 8.78973 37.4567 9.42648C37.4567 10.0632 37.6611 10.5864 38.0689 10.9869C38.4811 11.3817 38.9667 11.5842 39.5267 11.5842C40.1211 11.5842 40.6211 11.3817 41.0156 10.9824C41.2756 10.718 41.4234 10.3535 41.4623 9.88773H39.5267V9.23748H42.1089C42.14 9.37811 42.1489 9.51423 42.1489 9.64586Z" fill="white"/>
<path d="M46.245 7.39163H43.8195V9.10163H46.0061V9.75188H43.8195V11.4619H46.245V12.1245H43.1328V6.729H46.245V7.39163Z" fill="white"/>
<path d="M49.1364 12.1245H48.4497V7.39163H46.9619V6.729H50.6252V7.39163H49.1364V12.1245Z" fill="white"/>
<path d="M53.2764 12.1245V6.729H53.9619V12.1245H53.2764Z" fill="white"/>
<path d="M56.9996 12.1245H56.3185V7.39163H54.8252V6.729H58.493V7.39163H56.9996V12.1245Z" fill="white"/>
<path d="M65.4301 11.4301C64.9045 11.9757 64.2534 12.248 63.4767 12.248C62.6956 12.248 62.0445 11.9757 61.519 11.4301C60.9945 10.8856 60.7334 10.2174 60.7334 9.42648C60.7334 8.63561 60.9945 7.96736 61.519 7.42286C62.0445 6.87723 62.6956 6.60498 63.4767 6.60498C64.249 6.60498 64.9001 6.87723 65.4256 7.42736C65.9545 7.97636 66.2156 8.64011 66.2156 9.42648C66.2156 10.2174 65.9545 10.8856 65.4301 11.4301ZM62.0267 10.9779C62.4223 11.3817 62.9034 11.5842 63.4767 11.5842C64.0456 11.5842 64.5312 11.3817 64.9223 10.9779C65.3167 10.574 65.5167 10.0554 65.5167 9.42648C65.5167 8.79761 65.3167 8.27898 64.9223 7.87511C64.5312 7.47123 64.0456 7.26873 63.4767 7.26873C62.9034 7.26873 62.4223 7.47123 62.0267 7.87511C61.6323 8.27898 61.4323 8.79761 61.4323 9.42648C61.4323 10.0554 61.6323 10.574 62.0267 10.9779Z" fill="white"/>
<path d="M67.1787 12.1245V6.729H68.012L70.6032 10.9253H70.6332L70.6032 9.888V6.729H71.2887V12.1245H70.5732L67.8598 7.72125H67.8298L67.8598 8.763V12.1245H67.1787Z" fill="white"/>
<path d="M60.5639 20.0042C58.4761 20.0042 56.7706 21.6129 56.7706 23.8326C56.7706 26.0342 58.4761 27.6598 60.5639 27.6598C62.6561 27.6598 64.3617 26.0342 64.3617 23.8326C64.3617 21.6129 62.6561 20.0042 60.5639 20.0042ZM60.5639 26.1523C59.4184 26.1523 58.4328 25.1949 58.4328 23.8326C58.4328 22.4522 59.4184 21.5117 60.5639 21.5117C61.7095 21.5117 62.6995 22.4522 62.6995 23.8326C62.6995 25.1949 61.7095 26.1523 60.5639 26.1523ZM52.2873 20.0042C50.195 20.0042 48.4939 21.6129 48.4939 23.8326C48.4939 26.0342 50.195 27.6598 52.2873 27.6598C54.3784 27.6598 56.0806 26.0342 56.0806 23.8326C56.0806 21.6129 54.3784 20.0042 52.2873 20.0042ZM52.2873 26.1523C51.1406 26.1523 50.1517 25.1949 50.1517 23.8326C50.1517 22.4522 51.1406 21.5117 52.2873 21.5117C53.4328 21.5117 54.4184 22.4522 54.4184 23.8326C54.4184 25.1949 53.4328 26.1523 52.2873 26.1523ZM42.4384 21.1776V22.8043H46.275C46.1628 23.7133 45.8628 24.3816 45.4028 24.8473C44.8428 25.4098 43.9706 26.0342 42.4384 26.0342C40.0773 26.0342 38.2284 24.1048 38.2284 21.7142C38.2284 19.3236 40.0773 17.3942 42.4384 17.3942C43.715 17.3942 44.6439 17.8993 45.3295 18.5541L46.4617 17.4077C45.5028 16.4807 44.2273 15.7686 42.4384 15.7686C39.2006 15.7686 36.4795 18.4359 36.4795 21.7142C36.4795 24.9924 39.2006 27.6598 42.4384 27.6598C44.1884 27.6598 45.5028 27.0793 46.5362 25.9903C47.595 24.9182 47.925 23.4107 47.925 22.1934C47.925 21.8154 47.8939 21.4678 47.8384 21.1776H42.4384ZM82.7117 22.4387C82.3995 21.5826 81.4361 20.0042 79.4739 20.0042C77.5295 20.0042 75.9106 21.5556 75.9106 23.8326C75.9106 25.9768 77.5128 27.6598 79.6606 27.6598C81.3973 27.6598 82.3995 26.5877 82.8117 25.9633L81.5228 25.0937C81.0928 25.7304 80.5073 26.1523 79.6606 26.1523C78.8195 26.1523 78.2161 25.7619 77.8295 24.9924L82.8861 22.8741L82.7117 22.4387ZM77.5561 23.7133C77.5128 22.2373 78.6884 21.4813 79.5306 21.4813C80.1906 21.4813 80.7506 21.8154 80.9373 22.2936L77.5561 23.7133ZM73.4461 27.4269H75.1084V16.1769H73.4461V27.4269ZM70.7239 20.8569H70.6684C70.295 20.4092 69.5828 20.0042 68.6806 20.0042C66.7873 20.0042 65.0562 21.6872 65.0562 23.8449C65.0562 25.9903 66.7873 27.6598 68.6806 27.6598C69.5828 27.6598 70.295 27.2514 70.6684 26.7902H70.7239V27.3392C70.7239 28.8028 69.9517 29.5892 68.7061 29.5892C67.6906 29.5892 67.0606 28.8467 66.8006 28.2223L65.355 28.8332C65.7717 29.8479 66.875 31.0967 68.7061 31.0967C70.655 31.0967 72.2995 29.9357 72.2995 27.1108V20.2371H70.7239V20.8569ZM68.8228 26.1523C67.6773 26.1523 66.7184 25.1814 66.7184 23.8449C66.7184 22.4961 67.6773 21.5117 68.8228 21.5117C69.9517 21.5117 70.8417 22.4961 70.8417 23.8449C70.8417 25.1814 69.9517 26.1523 68.8228 26.1523ZM90.4939 16.1769H86.5184V27.4269H88.1761V23.1643H90.4939C92.335 23.1643 94.1406 21.8154 94.1406 19.6701C94.1406 17.5258 92.3306 16.1769 90.4939 16.1769ZM90.5372 21.5994H88.1761V17.7418H90.5372C91.775 17.7418 92.4817 18.7824 92.4817 19.6701C92.4817 20.5408 91.775 21.5994 90.5372 21.5994ZM100.785 19.9828C99.5872 19.9828 98.3417 20.5183 97.8295 21.7052L99.3006 22.3296C99.6172 21.7052 100.199 21.5027 100.815 21.5027C101.675 21.5027 102.547 22.0258 102.561 22.9494V23.0676C102.261 22.8921 101.618 22.6322 100.828 22.6322C99.2439 22.6322 97.6295 23.5153 97.6295 25.1634C97.6295 26.6709 98.9272 27.6418 100.386 27.6418C101.502 27.6418 102.117 27.1322 102.504 26.5393H102.561V27.4089H104.162V23.0934C104.162 21.0988 102.691 19.9828 100.785 19.9828ZM100.585 26.1478C100.043 26.1478 99.2872 25.8756 99.2872 25.1949C99.2872 24.3242 100.229 23.9901 101.045 23.9901C101.775 23.9901 102.117 24.1532 102.561 24.3681C102.431 25.4098 101.545 26.1478 100.585 26.1478ZM109.995 20.2292L108.089 25.1061H108.033L106.063 20.2292H104.275L107.235 27.0444L105.546 30.8368H107.278L111.839 20.2292H109.995ZM95.0517 27.4269H96.7139V16.1769H95.0517V27.4269Z" fill="white"/>
<path d="M9.2755 7.21152C9.01439 7.48828 8.86328 7.91915 8.86328 8.47715V28.3807C8.86328 28.9387 9.01439 29.3695 9.2755 29.6463L9.33995 29.707L20.3555 18.5583V18.295L9.33995 7.14628L9.2755 7.21152Z" fill="url(#paint0_linear_390_1420)"/>
<path d="M24.0232 22.2764L20.3555 18.5582V18.295L24.0277 14.5769L24.1099 14.6252L28.4588 17.1306C29.6999 17.8416 29.6999 19.0116 28.4588 19.7271L24.1099 22.228L24.0232 22.2764Z" fill="url(#paint1_linear_390_1420)"/>
<path d="M24.1108 22.228L20.3564 18.4266L9.27637 29.6462C9.68859 30.085 10.3608 30.1379 11.1253 29.6991L24.1108 22.228Z" fill="url(#paint2_linear_390_1420)"/>
<path d="M24.1108 14.6254L11.1253 7.15426C10.3608 6.72001 9.68859 6.77288 9.27637 7.21163L20.3564 18.4268L24.1108 14.6254Z" fill="url(#paint3_linear_390_1420)"/>
<defs>
<linearGradient id="paint0_linear_390_1420" x1="19.3775" y1="28.5879" x2="4.27446" y2="13.6714" gradientUnits="userSpaceOnUse">
<stop stop-color="#00A0FF"/>
<stop offset="0.0066" stop-color="#00A1FF"/>
<stop offset="0.2601" stop-color="#00BEFF"/>
<stop offset="0.5122" stop-color="#00D2FF"/>
<stop offset="0.7604" stop-color="#00DFFF"/>
<stop offset="1" stop-color="#00E3FF"/>
</linearGradient>
<linearGradient id="paint1_linear_390_1420" x1="30.0749" y1="18.4254" x2="8.56658" y2="18.4254" gradientUnits="userSpaceOnUse">
<stop stop-color="#FFE000"/>
<stop offset="0.4087" stop-color="#FFBD00"/>
<stop offset="0.7754" stop-color="#FFA500"/>
<stop offset="1" stop-color="#FF9C00"/>
</linearGradient>
<linearGradient id="paint2_linear_390_1420" x1="22.0693" y1="16.3601" x2="1.58836" y2="-3.86791" gradientUnits="userSpaceOnUse">
<stop stop-color="#FF3A44"/>
<stop offset="1" stop-color="#C31162"/>
</linearGradient>
<linearGradient id="paint3_linear_390_1420" x1="6.4873" y1="36.2682" x2="15.6329" y2="27.2355" gradientUnits="userSpaceOnUse">
<stop stop-color="#32A071"/>
<stop offset="0.0685" stop-color="#2DA771"/>
<stop offset="0.4762" stop-color="#15CF74"/>
<stop offset="0.8009" stop-color="#06E775"/>
<stop offset="1" stop-color="#00F076"/>
</linearGradient>
</defs>
</svg>
