<svg width="117" height="61" viewBox="0 0 117 61" fill="none" xmlns="http://www.w3.org/2000/svg">
<path d="M6.19163 40.64V38.56H9.80762C10.469 38.56 11.045 38.4533 11.5356 38.24C12.0263 38.0267 12.3996 37.7173 12.6556 37.312C12.933 36.9067 13.0716 36.4267 13.0716 35.872C13.0716 35.0187 12.773 34.368 12.1756 33.92C11.5996 33.472 10.8103 33.248 9.80762 33.248H7.34363V48.352H10.2876C11.0556 48.352 11.749 48.2453 12.3676 48.032C12.9863 47.7973 13.4663 47.4347 13.8076 46.944C14.1703 46.4533 14.3516 45.824 14.3516 45.056C14.3516 44.5013 14.245 44.032 14.0316 43.648C13.8396 43.2427 13.5516 42.912 13.1676 42.656C12.805 42.3787 12.3783 42.1867 11.8876 42.08C11.397 41.952 10.8636 41.888 10.2876 41.888H6.19163V39.392H10.7036C11.7916 39.392 12.8263 39.5093 13.8076 39.744C14.8103 39.9787 15.7063 40.352 16.4956 40.864C17.285 41.3547 17.9036 41.9947 18.3516 42.784C18.821 43.5733 19.0556 44.5227 19.0556 45.632C19.0556 47.104 18.7036 48.3093 17.9996 49.248C17.317 50.1867 16.3463 50.88 15.0876 51.328C13.829 51.776 12.3676 52 10.7036 52H2.76762V29.6H10.2236C11.717 29.6 13.029 29.8133 14.1596 30.24C15.2903 30.6453 16.1756 31.264 16.8156 32.096C17.4556 32.928 17.7756 33.984 17.7756 35.264C17.7756 36.3947 17.4556 37.3653 16.8156 38.176C16.1756 38.9867 15.2903 39.6053 14.1596 40.032C13.029 40.4373 11.717 40.64 10.2236 40.64H6.19163ZM28.0751 47.424C28.0751 47.8507 28.1818 48.224 28.3951 48.544C28.6085 48.8427 28.8965 49.0773 29.2591 49.248C29.6431 49.3973 30.0591 49.472 30.5071 49.472C31.1471 49.472 31.7231 49.344 32.2351 49.088C32.7471 48.8107 33.1631 48.4267 33.4831 47.936C33.8031 47.424 33.9631 46.816 33.9631 46.112L34.4751 48.032C34.4751 48.9707 34.2085 49.76 33.6751 50.4C33.1631 51.04 32.4911 51.52 31.6591 51.84C30.8485 52.16 29.9951 52.32 29.0991 52.32C28.1818 52.32 27.3285 52.1387 26.5391 51.776C25.7498 51.4133 25.1098 50.8907 24.6191 50.208C24.1498 49.504 23.9151 48.6507 23.9151 47.648C23.9151 46.2187 24.4165 45.088 25.4191 44.256C26.4218 43.424 27.8405 43.008 29.6751 43.008C30.6138 43.008 31.4351 43.104 32.1391 43.296C32.8645 43.488 33.4725 43.7227 33.9631 44C34.4538 44.2773 34.8058 44.544 35.0191 44.8V46.72C34.4431 46.2933 33.7925 45.9733 33.0671 45.76C32.3631 45.5467 31.6165 45.44 30.8271 45.44C30.1871 45.44 29.6645 45.5253 29.2591 45.696C28.8538 45.8453 28.5551 46.0693 28.3631 46.368C28.1711 46.6453 28.0751 46.9973 28.0751 47.424ZM26.4751 41.44L24.9391 38.624C25.7071 38.2187 26.6458 37.8347 27.7551 37.472C28.8645 37.088 30.1018 36.896 31.4671 36.896C32.7258 36.896 33.8458 37.0773 34.8271 37.44C35.8085 37.8027 36.5765 38.336 37.1311 39.04C37.6858 39.7227 37.9631 40.5653 37.9631 41.568V52H33.9631V42.432C33.9631 42.0267 33.8991 41.6853 33.7711 41.408C33.6431 41.1093 33.4405 40.864 33.1631 40.672C32.9071 40.48 32.5978 40.3413 32.2351 40.256C31.8725 40.1707 31.4671 40.128 31.0191 40.128C30.3365 40.128 29.6858 40.2027 29.0671 40.352C28.4485 40.5013 27.9151 40.6827 27.4671 40.896C27.0191 41.1093 26.6885 41.2907 26.4751 41.44ZM44.3786 27.04H48.5386V52H44.3786V27.04ZM55.1886 27.04H59.3486V52H55.1886V27.04ZM65.0066 44.64C65.0066 43.104 65.3586 41.76 66.0626 40.608C66.788 39.456 67.7586 38.56 68.9746 37.92C70.212 37.28 71.6093 36.96 73.1666 36.96C74.724 36.96 76.1106 37.28 77.3266 37.92C78.564 38.56 79.5346 39.456 80.2386 40.608C80.964 41.76 81.3266 43.104 81.3266 44.64C81.3266 46.1547 80.964 47.4987 80.2386 48.672C79.5346 49.824 78.564 50.72 77.3266 51.36C76.1106 52 74.724 52.32 73.1666 52.32C71.6093 52.32 70.212 52 68.9746 51.36C67.7586 50.72 66.788 49.824 66.0626 48.672C65.3586 47.4987 65.0066 46.1547 65.0066 44.64ZM69.2306 44.64C69.2306 45.472 69.4013 46.208 69.7426 46.848C70.1053 47.4667 70.5853 47.9573 71.1826 48.32C71.78 48.6613 72.4413 48.832 73.1666 48.832C73.892 48.832 74.5533 48.6613 75.1506 48.32C75.748 47.9573 76.2173 47.4667 76.5586 46.848C76.9213 46.208 77.1026 45.472 77.1026 44.64C77.1026 43.808 76.9213 43.072 76.5586 42.432C76.2173 41.792 75.748 41.3013 75.1506 40.96C74.5533 40.6187 73.892 40.448 73.1666 40.448C72.4413 40.448 71.78 40.6187 71.1826 40.96C70.5853 41.3013 70.1053 41.792 69.7426 42.432C69.4013 43.072 69.2306 43.808 69.2306 44.64ZM91.0601 37.28V52H86.9961V37.28H91.0601ZM95.3801 41.6C95.1028 41.344 94.8148 41.152 94.5161 41.024C94.2388 40.8747 93.8868 40.8 93.4601 40.8C92.9481 40.8 92.5108 40.9387 92.1481 41.216C91.7855 41.4933 91.5081 41.888 91.3161 42.4C91.1455 42.8907 91.0601 43.488 91.0601 44.192L89.9081 43.04C89.9081 41.8667 90.1321 40.832 90.5801 39.936C91.0281 39.0187 91.6148 38.2933 92.3401 37.76C93.0655 37.2053 93.8121 36.928 94.5801 36.928C95.1135 36.928 95.6148 37.024 96.0841 37.216C96.5748 37.408 96.9695 37.696 97.2681 38.08L95.3801 41.6ZM104.969 47.424C104.969 47.8507 105.076 48.224 105.289 48.544C105.502 48.8427 105.79 49.0773 106.153 49.248C106.537 49.3973 106.953 49.472 107.401 49.472C108.041 49.472 108.617 49.344 109.129 49.088C109.641 48.8107 110.057 48.4267 110.377 47.936C110.697 47.424 110.857 46.816 110.857 46.112L111.369 48.032C111.369 48.9707 111.102 49.76 110.569 50.4C110.057 51.04 109.385 51.52 108.553 51.84C107.742 52.16 106.889 52.32 105.993 52.32C105.076 52.32 104.222 52.1387 103.433 51.776C102.644 51.4133 102.004 50.8907 101.513 50.208C101.044 49.504 100.809 48.6507 100.809 47.648C100.809 46.2187 101.31 45.088 102.313 44.256C103.316 43.424 104.734 43.008 106.569 43.008C107.508 43.008 108.329 43.104 109.033 43.296C109.758 43.488 110.366 43.7227 110.857 44C111.348 44.2773 111.7 44.544 111.913 44.8V46.72C111.337 46.2933 110.686 45.9733 109.961 45.76C109.257 45.5467 108.51 45.44 107.721 45.44C107.081 45.44 106.558 45.5253 106.153 45.696C105.748 45.8453 105.449 46.0693 105.257 46.368C105.065 46.6453 104.969 46.9973 104.969 47.424ZM103.369 41.44L101.833 38.624C102.601 38.2187 103.54 37.8347 104.649 37.472C105.758 37.088 106.996 36.896 108.361 36.896C109.62 36.896 110.74 37.0773 111.721 37.44C112.702 37.8027 113.47 38.336 114.025 39.04C114.58 39.7227 114.857 40.5653 114.857 41.568V52H110.857V42.432C110.857 42.0267 110.793 41.6853 110.665 41.408C110.537 41.1093 110.334 40.864 110.057 40.672C109.801 40.48 109.492 40.3413 109.129 40.256C108.766 40.1707 108.361 40.128 107.913 40.128C107.23 40.128 106.58 40.2027 105.961 40.352C105.342 40.5013 104.809 40.6827 104.361 40.896C103.913 41.1093 103.582 41.2907 103.369 41.44Z" fill="#203D4B"/>
<path d="M88.9469 17.166L87.7886 15.6054L87.3902 14.9227C86.7034 13.7456 86.1296 12.5062 85.6763 11.2211L85.5867 10.9386C85.2381 9.84037 84.972 8.71764 84.7906 7.57978L84.7094 6.20689C84.6728 5.58953 84.7244 4.97011 84.8626 4.3673L84.9645 3.92301C85.119 3.24868 85.4256 2.61857 85.8607 2.08074C86.1002 1.78466 86.3761 1.51988 86.6817 1.29262L87.1945 0.911266C87.5433 0.651925 87.928 0.444748 88.3364 0.296255C88.7413 0.149063 89.1653 0.0610795 89.5953 0.0350246L90.1734 0C90.9866 0 91.7954 0.119819 92.5736 0.355598L92.6263 0.371558L92.6664 0.389766C93.1809 0.623589 93.6514 0.944215 94.0572 1.33761L94.3432 1.62552C94.741 2.02599 95.079 2.48163 95.347 2.97843C95.5314 3.3204 95.6815 3.6798 95.7951 4.05137L95.8148 4.11584C96.0047 4.73729 96.1013 5.38351 96.1013 6.03334V6.82074C96.1013 8.01348 95.9209 9.19937 95.5663 10.3382L95.3973 10.881C95.0501 11.9959 94.5785 13.0682 93.9916 14.0777L93.7913 14.4221C93.3332 15.21 92.8193 15.964 92.2535 16.6785L91.8087 17.2403L91.3998 17.8348L90.2938 17.0274L90.3166 16.9955L89.4239 17.7605L88.9469 17.166Z" fill="#78CBF3"/>
<path d="M79.2175 4.71682L79.2363 4.69906C79.6655 4.29333 80.1603 3.96314 80.6997 3.72248C81.1535 3.52004 81.6337 3.3832 82.126 3.31609L82.474 3.26865L82.7966 3.25265C83.5714 3.21424 84.3452 3.34655 85.0632 3.64021L84.7225 5.20075C84.2754 4.95694 83.7743 4.82919 83.265 4.82919H83.0821C82.3732 4.82919 81.6787 5.0295 81.0786 5.40704L80.739 5.62073C80.3996 5.83431 80.1026 6.10883 79.863 6.43044C79.5202 6.89052 79.3053 7.43308 79.24 8.00306L79.2266 8.11916C79.1664 8.64446 79.2199 9.17655 79.3835 9.67934L79.5616 10.2266C79.7756 10.8844 80.096 11.5027 80.51 12.0568L80.6932 12.302C81.1513 12.9152 81.6932 13.4612 82.303 13.9238L83.1566 14.5714C84.0616 15.2581 85.0381 15.845 86.0691 16.322L86.7666 16.6447L89.4239 17.7594L88.47 19.0227L87.1754 18.4282L84.2455 17.1649L84.0968 17.0919C83.2894 16.6957 82.5228 16.2213 81.808 15.6755L81.7502 15.6314C81.1437 15.1684 80.5794 14.6527 80.0637 14.0903L79.7746 13.775C79.3496 13.3115 78.9748 12.8043 78.6565 12.2619L78.5583 12.0946C78.2177 11.5142 77.957 10.8905 77.7831 10.2404L77.7312 10.0462C77.6228 9.64098 77.5597 9.22503 77.543 8.80594L77.5369 8.65209C77.5125 8.04107 77.6035 7.43093 77.8052 6.85363C77.9642 6.39828 78.1901 5.9691 78.4754 5.58017L78.574 5.44572C78.7661 5.18386 78.9815 4.9399 79.2175 4.71682Z" fill="#78CBF3"/>
<path d="M95.7136 3.70508L95.6919 3.71461L96.0326 5.12653L96.372 5.00213C96.8181 4.83863 97.2895 4.75497 97.7646 4.75497C98.5464 4.75497 99.3115 4.98144 99.9674 5.407L100.169 5.53816C100.507 5.75725 100.801 6.03703 101.037 6.3633C101.366 6.81909 101.572 7.35234 101.634 7.91117L101.649 8.04828C101.707 8.57173 101.656 9.10156 101.497 9.60382L101.326 10.1456C101.117 10.808 100.803 11.4326 100.395 11.9951L100.046 12.478C99.7205 12.9267 99.361 13.3497 98.957 13.7289C98.6862 13.9831 98.3684 14.2727 98.1035 14.4898C97.5302 14.9598 97.1999 15.2155 96.5777 15.6045C95.7409 16.1276 95.2227 16.3228 94.3292 16.7191C93.2067 17.2171 91.3312 17.8338 91.3312 17.8338L92.2169 18.7999L94.0732 18.2054L96.7821 17.0907L96.9138 17.0241C97.705 16.6236 98.4545 16.1456 99.1513 15.597L99.1913 15.5655C99.7864 15.097 100.339 14.5767 100.842 14.0107L101.109 13.7099C101.527 13.2403 101.894 12.7282 102.205 12.182L102.292 12.0284C102.626 11.4425 102.88 10.8153 103.05 10.1628L103.099 9.97315C103.204 9.56709 103.265 9.15088 103.282 8.7317L103.288 8.57014C103.311 7.96392 103.223 7.35854 103.029 6.78393C102.874 6.32549 102.652 5.8922 102.372 5.49777L102.277 5.36535C102.094 5.10758 101.888 4.86683 101.661 4.64603L101.629 4.61499C101.22 4.21584 100.745 3.8897 100.226 3.65069C99.7824 3.44669 99.3116 3.30853 98.8283 3.24059L98.5 3.19443C97.5441 3.14556 96.59 3.32041 95.7136 3.70508Z" fill="#78CBF3"/>
<path d="M87.9246 19.5443L90.1731 16.8691H90.582L92.8986 19.5443L93.4515 20.3328C93.6681 20.6418 93.7844 21.0101 93.7844 21.3875C93.7844 21.6898 93.7098 21.9874 93.5672 22.254L93.524 22.3347C93.382 22.6002 93.174 22.8246 92.9199 22.9862C92.639 23.165 92.3129 23.2599 91.98 23.2599H91.3315H89.8325H88.8206C88.5009 23.2599 88.1864 23.1797 87.9057 23.0266L87.822 22.981C87.5339 22.8239 87.3009 22.5824 87.1541 22.289C87.0338 22.0484 86.9758 21.7814 86.9854 21.5125L86.989 21.4137C87.0032 21.0186 87.1345 20.6366 87.3662 20.3162L87.9246 19.5443Z" fill="#78CBF3"/>
<path d="M90.3776 18.5781L92.0298 21.6992H88.7253L90.3776 18.5781Z" fill="#D5EFFB"/>
<path d="M90.243 34.9991L90.7199 33.8845L90.8562 32.9184L91.1619 31.6885L91.0606 31.2092V27.568V23.1836H89.766V27.7166V29.946V31.2092V32.1753V32.9927L89.6297 33.7358L89.2891 34.6276L90.243 34.9991Z" fill="#78CBF3"/>
<path d="M92.3341 28.4179C92.5261 28.1042 92.7195 27.8098 92.9011 27.5683C93.9059 26.2321 94.5798 25.505 95.9672 24.6702C96.9844 24.0582 97.6253 23.823 98.7608 23.5555C99.469 23.3887 100.429 23.3403 101.112 23.3291C101.68 23.3198 102.283 23.2828 102.781 23.5555C103.168 23.7677 103.272 24.2605 103.181 24.6926L102.978 25.6614C102.847 26.2851 102.624 26.8857 102.315 27.4431L101.616 28.7039C101.214 29.4289 100.704 30.0888 100.105 30.6611C99.2638 31.4635 98.2634 32.0812 97.1606 32.4479C96.4305 32.6907 95.5943 32.9594 94.9452 33.1417C93.2413 33.6202 90.7207 33.8848 90.7207 33.8848C90.8696 31.9649 91.3291 30.0605 92.3341 28.4179Z" fill="#78CBF3"/>
<path d="M100.347 24.7066L101.691 24.6699L101.464 25.5126C101.388 25.793 101.311 26.0726 101.22 26.3483C101.091 26.7374 100.883 27.3175 100.669 27.7167C99.9171 29.1165 99.1929 29.7875 97.8753 30.5405C97.6831 30.6504 97.4528 30.7559 97.2197 30.8512C96.4023 31.1854 95.5549 31.4428 94.7095 31.6981C94.4843 31.7661 94.2584 31.83 94.0597 31.8781C93.1928 32.0882 91.8115 32.2497 91.8115 32.2497C91.8115 32.2497 92.0548 31.7029 92.2203 31.358L92.2338 31.3301C92.4895 30.8002 92.7883 30.2925 93.1061 29.7974L94.0597 28.2369C94.2475 27.9965 94.5265 27.6861 94.7884 27.4056C95.2481 26.9134 95.7707 26.4854 96.3272 26.106L96.6046 25.9169C96.9514 25.6806 97.3188 25.4759 97.7023 25.3055C98.5364 24.9349 99.435 24.7314 100.347 24.7066Z" fill="#D5EFFB"/>
<path d="M90.106 1.56055H90.8555L91.7413 1.70917L92.3545 1.9321L92.8996 2.30366L93.3766 2.74953L93.9217 3.56696L94.2624 4.31008L94.5349 4.90457L94.6712 5.57337V6.24218L94.603 6.98529L94.5349 7.72841C94.5349 7.72841 94.4137 8.82535 94.2624 9.51189C94.1718 9.92273 93.9898 10.5523 93.9898 10.5523L93.7173 11.2211L93.4447 11.9642C93.4447 11.9642 93.2435 12.4207 93.104 12.7073C92.6612 13.6176 92.3463 14.0886 91.8094 14.9366C91.4783 15.4596 91.0014 16.1427 90.6907 16.5809C90.5359 16.7992 90.2152 16.8038 90.0542 16.5899C89.8762 16.3535 89.6586 16.0613 89.4928 15.8284C89.1076 15.2874 88.5389 14.4165 88.5389 14.4165C88.5389 14.4165 88.2433 13.876 88.0619 13.5247C87.8983 13.2079 87.6531 12.7073 87.6531 12.7073L87.108 11.2211L86.7673 10.3293L86.5629 9.51189C86.5629 9.51189 86.244 8.48553 86.1541 7.80272C86.0821 7.25618 86.0859 6.3908 86.0859 6.3908C86.0859 6.3908 86.1144 5.75545 86.1541 5.35044C86.1941 4.94235 86.2903 4.31008 86.2903 4.31008C86.2903 4.31008 86.5482 3.74304 86.7673 3.41834C86.9572 3.13689 87.3124 2.74953 87.3124 2.74953C87.3124 2.74953 87.901 2.2306 88.3345 2.00642C88.6159 1.86087 89.084 1.70917 89.084 1.70917L90.106 1.56055Z" fill="#D5EFFB"/>
<path d="M96.7666 4.86101L96.0335 5.12751L96.1016 6.24218L96.0335 7.57979L95.8291 9.06603L95.6084 9.86805C95.2117 11.3105 94.6543 12.7038 93.9469 14.0219L93.3761 15.0853L92.5585 16.1999L91.6727 17.3889L91.332 17.9091L92.9607 17.3308C93.827 17.0232 94.6694 16.652 95.4809 16.2202C96.5283 15.663 97.5201 15.0072 98.4429 14.2617L98.8952 13.8963L99.0027 13.7864C99.656 13.1184 100.237 12.383 100.735 11.5926L101.144 10.7752L101.484 9.80914L101.598 9.31578C101.658 9.05104 101.689 8.7803 101.689 8.50869C101.689 8.23708 101.658 7.96634 101.598 7.70159L101.555 7.51675C101.508 7.31147 101.443 7.1107 101.361 6.91675L101.313 6.8029C101.156 6.43286 100.927 6.09807 100.638 5.81839C100.521 5.70478 100.395 5.60093 100.261 5.50787L100.189 5.45797C99.8732 5.23877 99.5279 5.06543 99.1634 4.94312L98.8271 4.83026L98.3647 4.73857C98.1737 4.70071 97.9796 4.68164 97.7849 4.68164C97.4376 4.68164 97.093 4.74234 96.7666 4.86101Z" fill="#D5EFFB"/>
<path d="M84.1614 4.9345L84.8985 5.19921L84.8299 6.30759L84.8985 7.63764C85.0355 8.62118 85.2534 9.59174 85.5501 10.5394L85.5603 10.5719C85.8658 11.5479 86.252 12.4967 86.7148 13.4087L86.9487 13.8696C87.3644 14.6889 87.8488 15.4715 88.3965 16.2091L89.2881 17.3914L89.5625 17.8347L88.0694 17.3368C87.1459 17.0289 86.2488 16.6465 85.387 16.1936C84.3777 15.6633 83.4211 15.0383 82.5299 14.3271L82.0178 13.9184L81.9072 13.8067C81.2512 13.1441 80.6675 12.4137 80.1659 11.6278L79.7544 10.815L79.4115 9.85439L79.2976 9.36357C79.2365 9.10051 79.2057 8.83134 79.2057 8.56129C79.2057 8.29123 79.2365 8.02206 79.2976 7.759L79.3399 7.57653C79.3875 7.37136 79.4532 7.17081 79.5361 6.97721L79.5826 6.86873C79.7412 6.49844 79.973 6.16398 80.2639 5.88536C80.3813 5.77294 80.5077 5.67027 80.6417 5.57836L80.7163 5.52721C81.0337 5.30962 81.3801 5.13777 81.7454 5.01669L82.0864 4.90364L82.5519 4.81247C82.7441 4.77482 82.9395 4.75586 83.1354 4.75586C83.4851 4.75586 83.8322 4.81629 84.1614 4.9345Z" fill="#D5EFFB"/>
</svg>
