<svg width="180" height="101" viewBox="0 0 180 101" fill="none" xmlns="http://www.w3.org/2000/svg">
<g id="Group-427319286 1">
<path id="Vector 31" d="M140.25 46.5271L146.5 43.5867L149.18 43.5867L150.216 42.734L150.836 43.5867L150.836 44.3532C150.895 45.457 149.783 48.3957 149.75 48.701C149.717 49.0064 147.97 50.3947 147 51.6902L140.25 55.7662L134.144 56.8532L134.144 54.8142L140.25 46.5271Z" fill="#8C828E"/>
<path id="Vector 26" d="M125.5 18.2663L126.75 10.6576L129 7.66848L131.25 7.125H132.25L134.75 7.66848C135.583 8.30254 137.3 9.625 137.5 9.84239C137.7 10.0598 138.417 13.375 138.75 15.0054L136.25 23.9728L132.75 31.5815L130 28.3207L125.5 18.2663Z" fill="#8C828E"/>
<path id="Vector 27" d="M133.5 22.8854L134.75 15.2767L137 12.2876L139.25 11.7441H140.25L142.75 12.2876C143.75 13.3746 144.5 13.3746 145.5 14.4615C146.5 15.5485 147.917 17.4507 148.25 19.0811L144.25 28.592L134.75 32.9398V30.7659L133.5 22.8854Z" fill="#8C828E"/>
<path id="Vector 28" d="M130.5 22.6281L129.229 14.8244L126.941 11.7586L124.653 11.2012H123.636L121.093 11.7586C120.076 12.8734 119.314 12.8734 118.297 13.9882C117.28 15.1031 115.839 17.054 115.5 18.7263L119.568 28.481L129.229 32.9403L133.75 32.1251L130.5 22.6281Z" fill="#8C828E"/>
<path id="Vector 29" d="M130.5 22.6281L129.229 14.8244L126.941 11.7586L124.653 11.2012H123.636L121.093 11.7586C120.076 12.8734 119.314 12.8734 118.297 13.9882C117.28 15.1031 115.839 17.054 115.5 18.7263L119.568 28.481L129.229 32.9403L133.75 32.1251L130.5 22.6281Z" fill="#8C828E"/>
<path id="Vector 30" d="M135.416 38.6464L135.417 36.2913L133.098 34.8351L130.778 34.5703H129.747L130.5 35.929C129.469 36.4586 131.031 35.7618 130.001 36.2913C128.97 36.8209 130.344 37.3086 130.001 38.1029L130.5 38.3747V38.6464L132.751 39.1899L135.416 38.6464Z" fill="#8C828E"/>
<g id="Group">
<path id="Vector" d="M128.201 6.59929C127.067 7.3964 125.934 8.62828 125.734 9.35292C125.467 10.3674 124.667 10.6573 122.267 10.6573C119.667 10.6573 118.934 11.0196 117.267 13.0486C115.801 14.7877 115.334 16.092 115.334 18.3384C115.334 25.0051 120.001 30.5848 128.201 33.7007C129.401 34.208 129.401 34.2805 128.134 36.0196C126.401 38.3384 126.934 40.5123 129.334 41.0921C130.801 41.4544 131.267 42.0341 131.667 44.0631C132.067 46.4544 131.801 51.3094 130.934 57.179C130.667 58.9906 130.867 59.5703 131.667 59.5703C132.201 59.5703 132.667 59.2805 132.667 58.9181C132.667 58.6283 134.401 58.121 136.534 57.8312C141.067 57.2515 146.334 54.7152 148.801 51.8892C150.667 49.7152 152.667 45.2225 152.667 43.266C152.667 41.6718 145.801 41.8167 142.334 43.5558C139.867 44.7152 136.134 48.7007 134.201 52.0341C133.534 53.1935 133.401 52.3964 133.401 47.6138C133.334 41.7442 133.334 41.7442 135.334 40.9471C137.601 40.0051 138.001 37.6863 136.267 35.5123C135.201 34.3529 135.267 34.208 136.401 33.7732C140.467 32.179 142.134 31.1645 144.534 28.8457C149.667 23.7732 150.867 17.2515 147.467 13.121C145.934 11.237 145.001 10.8022 142.734 10.7297C140.334 10.6573 139.401 10.15 137.334 7.90364C134.401 4.7877 131.601 4.35292 128.201 6.59929ZM134.934 8.48335C137.267 10.15 138.267 13.3384 137.801 17.7587C137.334 21.5993 133.534 30.8022 132.334 30.8022C132.001 30.8022 130.667 28.7007 129.401 26.092C127.801 22.6863 127.067 20.0776 126.867 16.5993C126.534 12.0341 126.601 11.7442 128.534 9.64277C130.801 7.179 132.601 6.81668 134.934 8.48335ZM125.067 18.0486C125.467 20.8747 126.801 25.2225 127.934 27.6138C129.067 30.0776 129.867 32.0341 129.734 32.0341C129.601 32.0341 128.467 31.5993 127.267 31.0196C121.667 28.4109 117.334 22.9761 117.334 18.4834C117.334 15.8022 120.667 12.2515 122.867 12.6138C124.001 12.8312 124.401 13.7007 125.067 18.0486ZM145.267 14.3529C146.801 15.7297 147.334 16.8167 147.334 18.5558C147.334 21.237 144.667 26.0196 141.867 28.3384C139.934 30.0051 135.334 32.3239 134.934 31.8167C134.801 31.6718 135.534 29.7877 136.601 27.6138C137.667 25.4399 138.934 21.5993 139.334 18.9906C139.801 16.3819 140.201 13.8457 140.401 13.3384C140.801 11.8891 143.067 12.3239 145.267 14.3529ZM132.601 38.4109C129.934 38.7007 129.534 38.1935 131.001 36.3819L132.267 34.8602L133.467 36.5268C134.601 38.1935 134.601 38.1935 132.601 38.4109ZM150.001 45.2949C150.001 45.8747 149.134 47.6138 148.067 49.208C145.934 52.4689 141.867 54.9326 137.401 55.6573L134.534 56.1645L135.601 53.9906C137.201 50.5123 139.934 47.3239 142.601 45.8022C145.467 44.1355 150.001 43.8457 150.001 45.2949Z" fill="white"/>
<path id="Vector_2" d="M7.26699 52.9036C8.20033 54.8601 8.26699 91.3094 7.33366 94.063L6.66699 96.0195L16.1337 95.6572C24.2003 95.3674 26.2003 95.0775 29.2003 93.6282C33.867 91.4543 36.0003 88.121 36.0003 83.0485C36.0003 77.9036 34.067 74.8601 29.4003 72.9036L25.8003 71.3094L27.7337 70.2224C34.9337 66.1645 35.0003 57.6862 27.867 53.7007C25.4003 52.3239 23.6003 52.034 15.7337 51.7442C6.60033 51.3819 6.53366 51.4543 7.26699 52.9036ZM24.1337 55.6572C26.467 56.9616 27.3337 58.7732 27.3337 62.4688C27.3337 64.9326 26.9337 65.9471 25.067 67.9761C22.9337 70.2949 22.5337 70.4398 18.067 70.4398H13.3337V62.6137C13.3337 58.2659 13.5337 54.4978 13.8003 54.2079C14.467 53.4833 22.067 54.5703 24.1337 55.6572ZM27.3337 75.8746C29.9337 78.5558 30.867 82.2514 29.9337 85.9471C28.6003 91.3094 24.7337 93.6282 17.2003 93.6282H13.3337V83.4108V73.1934L19.267 73.4833C24.8003 73.7007 25.4003 73.8456 27.3337 75.8746Z" fill="white"/>
<path id="Vector_3" d="M73.3336 52.396L71.0003 53.1206L71.5336 63.7728C72.0003 73.8452 71.6003 91.7438 70.9336 94.4974C70.6003 95.6568 71.0669 95.8018 74.3336 95.8018C77.7336 95.8018 78.0669 95.6568 77.6003 94.4974C77.2669 93.8452 76.9336 83.9177 76.8003 72.396C76.7336 60.9467 76.4003 51.5989 76.1336 51.6713C75.8669 51.7438 74.6003 52.0336 73.3336 52.396Z" fill="white"/>
<path id="Vector_4" d="M86.0003 52.396L83.667 53.1206V74.4249V95.8018H87.2003C90.4003 95.8018 91.6003 95.0771 90.0003 93.9902C89.6003 93.7003 89.3337 85.8018 89.3337 72.5409C89.3337 61.0191 89.1337 51.5989 88.867 51.6713C88.5337 51.7438 87.267 52.0336 86.0003 52.396Z" fill="white"/>
<path id="Vector_5" d="M50.0001 65.1496C46.4001 66.5264 43.4001 68.5554 42.8001 70.1496C41.6667 72.7583 41.8001 73.1206 43.6667 73.483C45.0667 73.7728 45.5334 73.4105 46.4667 71.309C49.5334 64.3525 58.6667 66.454 58.6667 74.1351C58.6667 76.8163 58.5334 76.9612 55.8667 77.6859C45.2667 80.6569 42.4001 82.2511 41.0001 85.9467C39.8001 88.9902 40.6667 92.9757 42.8667 94.5699C47.0001 97.4685 53.1334 96.5989 56.5334 92.6134C57.7334 91.1641 58.8001 90.0047 59.0001 90.0047C59.1334 90.0047 59.3334 91.2366 59.4667 92.6859C59.6667 95.4395 59.7334 95.4395 62.8001 95.6569L65.9334 95.8743L65.0001 93.8453C64.2667 92.3235 64.0001 89.2076 64.0001 82.0337C64.0001 70.8743 63.2667 68.2656 59.2667 65.9467C57.1334 64.7148 52.2667 64.2801 50.0001 65.1496ZM59.3334 82.0337C59.3334 88.338 55.9334 92.9032 51.2001 92.9032C46.8001 92.9032 44.1334 88.7728 46.0001 84.8598C47.0667 82.6859 54.0001 79.425 57.8667 79.2076C59.1334 79.1351 59.3334 79.4975 59.3334 82.0337Z" fill="white"/>
<path id="Vector_6" d="M102.533 66.0919C95.2 70.3673 92.2667 82.3963 96.8667 89.86C100.733 96.2368 109.333 98.3383 116.067 94.4977C124.6 89.7151 126.067 76.2368 118.867 68.8455C114.8 64.5702 107.333 63.3383 102.533 66.0919ZM112.667 68.4832C116.067 70.947 117.467 74.1354 117.867 80.2223C118.133 84.6426 117.933 86.0919 116.733 88.7006C114.333 94.2079 109.6 95.8745 105.333 92.6861C102.133 90.4397 100.533 87.0339 100.2 81.8166C99.7334 75.7296 100.8 71.8166 103.667 69.0629C106.533 66.3093 109.533 66.0919 112.667 68.4832Z" fill="white"/>
<path id="Vector_7" d="M141.334 65.1496C138.601 66.0191 137.134 67.396 135.601 70.0771L134.001 72.9757V69.2076V65.4394L131.534 65.8742C130.134 66.0916 128.934 66.3815 128.801 66.4539C128.734 66.5264 128.534 73.1931 128.467 81.2365L128.334 95.8018H131.867C135.134 95.8018 135.334 95.7293 134.667 94.4249C134.334 93.6278 134.001 89.1351 134.001 84.4249C134.001 77.1786 134.201 75.5119 135.334 73.4829C137.001 70.5119 139.534 69.3525 142.267 70.4394C143.734 71.0191 144.401 70.9467 144.801 70.2945C145.467 69.1351 146.267 66.0916 145.934 65.8018C145.334 65.2945 142.267 64.7873 141.334 65.1496Z" fill="white"/>
<path id="Vector_8" d="M155.333 65.7292C151.867 66.8886 149.467 69.3524 149.2 71.8886C149.067 73.3379 149.333 73.7727 150.667 73.9176C152.067 74.0626 152.533 73.7002 153.2 71.5988C154 69.2799 157.133 66.8162 159.333 66.8162C162.4 66.8162 165.333 70.7292 165.333 74.7872C165.333 76.6712 165 76.9611 162.533 77.6857C149 81.3814 145.867 83.9901 146.933 90.2944C147.667 94.6423 151.867 96.9611 157.333 96.0915C159.6 95.7292 161 94.9321 162.933 92.8307C164.333 91.2365 165.6 90.0046 165.733 90.0046C165.8 90.0046 166 91.2365 166.133 92.6857C166.333 95.4394 166.333 95.4394 169.6 95.6568C172.667 95.8741 172.8 95.8017 171.933 94.6423C171.267 93.7727 170.933 90.4394 170.667 82.4684C170.267 70.077 169.533 67.7582 165.733 65.8017C163 64.4249 159.4 64.3524 155.333 65.7292ZM165.333 83.4828C165.333 87.4684 165.133 87.9756 163 90.3669C161.067 92.4684 160.133 92.9031 157.867 92.9031C154.333 92.9031 152 90.7292 152 87.4684C152 84.4249 154.2 82.251 159.067 80.5843C165.333 78.4828 165.333 78.4828 165.333 83.4828Z" fill="white"/>
</g>
</g>
</svg>
