<svg width="21" height="24" viewBox="0 0 21 24" fill="none" xmlns="http://www.w3.org/2000/svg">
<path d="M8.99447 11.7644L8.0842 10.6949L7.75399 10.2013C7.22589 9.41204 6.78031 8.57054 6.42428 7.69012L6.34961 7.48496C6.0786 6.7403 5.87072 5.97417 5.72819 5.19465L5.66619 4.28065C5.63632 3.84041 5.6783 3.39824 5.79047 2.97148L5.84887 2.7493C5.98056 2.2483 6.23378 1.78751 6.58609 1.40774C6.76311 1.21693 6.9631 1.04879 7.18148 0.907169L7.59493 0.639057C7.8841 0.451533 8.19715 0.303708 8.52569 0.199549C8.83695 0.10087 9.1595 0.0422082 9.48557 0.0249789L9.9583 0C10.5982 0 11.2353 0.0827505 11.854 0.246193L11.8859 0.25464L11.9418 0.276785C12.3303 0.430757 12.6913 0.646883 13.0104 0.916703L13.264 1.13938C13.5574 1.39692 13.8109 1.6966 14.0162 2.0286C14.1663 2.27123 14.2895 2.52942 14.3839 2.79864L14.3882 2.8108C14.5395 3.24256 14.6168 3.69679 14.6168 4.1543V4.6746C14.6168 5.49056 14.4765 6.30044 14.2021 7.06887L14.0535 7.48505C13.7875 8.23009 13.431 8.93966 12.9922 9.59788L12.7865 9.90637C12.4365 10.4313 12.0478 10.9294 11.6237 11.3965L11.2434 11.8153L10.9221 12.2227L10.053 11.6694L10.0709 11.6475L9.36929 12.1718L8.99447 11.7644Z" fill="#78CBF3"/>
<path d="M2.49243 2.56L2.53166 2.54474C2.87724 2.41028 3.23843 2.32008 3.60665 2.27631L3.90884 2.24038L4.1781 2.22874C4.77826 2.20279 5.37777 2.29322 5.94357 2.49502L5.67585 3.56451C5.32331 3.39686 4.93784 3.30987 4.54747 3.30987H4.3883C3.82784 3.30987 3.27643 3.45121 2.78508 3.72083L2.50047 3.87699C2.26334 4.00711 2.0518 4.17918 1.87612 4.38483C1.59523 4.71363 1.41521 5.12089 1.35886 5.54964C1.31072 5.91594 1.35262 6.29189 1.48176 6.63804L1.6289 7.03243C1.7911 7.4672 2.02859 7.87 2.33049 8.2224L2.53292 8.4587C2.87737 8.86076 3.2761 9.21293 3.71763 9.50507L4.48331 10.0117C5.1695 10.4657 5.89962 10.8495 6.66264 11.1574L7.28222 11.4074L9.3705 12.1713L8.62086 13.0371L7.60349 12.6297L5.30103 11.7639L5.14229 11.696C4.53545 11.4362 3.95365 11.1215 3.4042 10.7557L3.30324 10.6885C2.85109 10.3874 2.42583 10.0478 2.03224 9.67349L1.75715 9.41185C1.44339 9.11342 1.16314 8.78163 0.9214 8.42238L0.813569 8.26213C0.558166 7.88257 0.3602 7.46739 0.226072 7.03L0.180355 6.88092C0.0961516 6.60634 0.0469095 6.32223 0.0337942 6.03533L0.0302171 5.95707C0.0103033 5.52145 0.0838918 5.08661 0.246034 4.68179C0.366815 4.38024 0.534923 4.09989 0.74402 3.85129L0.837961 3.73961C0.992941 3.55535 1.16439 3.3856 1.35017 3.23246L1.36213 3.22261C1.70127 2.94305 2.08283 2.71937 2.49243 2.56Z" fill="#78CBF3"/>
<path d="M17.8677 2.50586L17.8415 2.49536C17.5042 2.36 17.1507 2.26906 16.7899 2.22482L16.5026 2.1896C15.7515 2.15612 14.998 2.27736 14.2958 2.5461L14.5636 3.51373L14.8268 3.42959C15.1803 3.3166 15.5492 3.25909 15.9203 3.25909H15.9531C16.5515 3.25909 17.1398 3.41399 17.6606 3.70871L17.8587 3.8208C18.0949 3.95448 18.3048 4.13016 18.478 4.33919C18.7478 4.66491 18.9194 5.06063 18.9729 5.48019L18.9761 5.50509C19.0226 5.86987 18.9816 6.24048 18.8565 6.58628L18.7155 6.97598C18.5568 7.4146 18.3232 7.82237 18.0252 8.18115L17.7011 8.57125C17.4564 8.86587 17.1886 9.14085 16.8925 9.38394C16.6733 9.56396 16.4093 9.77462 16.191 9.93065C15.7405 10.2527 15.4809 10.428 14.9919 10.6946C14.3343 11.0531 13.9271 11.1869 13.2249 11.4585C12.3428 11.7997 10.8689 12.2224 10.8689 12.2224L11.565 12.8845L13.0237 12.477L15.1526 11.7131L15.2979 11.649C15.892 11.3868 16.4605 11.0698 16.9959 10.7022L17.082 10.6431C17.5256 10.3385 17.9419 9.99579 18.3261 9.61895L18.5823 9.36766C18.8911 9.06484 19.166 8.7294 19.4023 8.36722L19.4999 8.21775C19.7504 7.83387 19.9439 7.41574 20.0746 6.97637L20.1178 6.8312C20.1996 6.55585 20.2475 6.27151 20.2602 5.98452L20.264 5.8996C20.2831 5.46811 20.2122 5.03736 20.0558 4.63474C19.9377 4.33067 19.7726 4.04704 19.5664 3.79425L19.4825 3.69142C19.3308 3.50544 19.1608 3.3322 18.9779 3.17676C18.6473 2.89575 18.2703 2.66743 17.8677 2.50586Z" fill="#78CBF3"/>
<path d="M8.193 13.3929L9.96001 11.5596H10.2813L12.1018 13.3929L12.5499 13.9503C12.7104 14.1499 12.7979 14.3983 12.7979 14.6545C12.7979 14.8619 12.7405 15.0653 12.6321 15.2421L12.6039 15.2881C12.4854 15.4813 12.319 15.6406 12.1208 15.7506L12.0993 15.7625C11.8903 15.8785 11.6551 15.9393 11.416 15.9393H10.8703H9.69228H8.8622C8.63313 15.9393 8.40694 15.8883 8.20007 15.7899L8.06796 15.7271C7.87046 15.6332 7.70634 15.4812 7.59754 15.2915C7.49681 15.1158 7.44778 14.9153 7.45611 14.713L7.45785 14.6706C7.46886 14.4034 7.56729 14.1472 7.73803 13.9414L8.193 13.3929Z" fill="#78CBF3"/>
<path d="M10.1204 12.7314L11.4188 14.8704H8.82196L10.1204 12.7314Z" fill="#D5EFFB"/>
<path d="M10.0153 23.9862L10.3901 23.2223L10.4972 22.5602L10.7374 21.7173L10.6578 21.3889V18.8934V15.8887H9.64044V18.9953V20.5231V21.3889V22.051V22.6112L9.53335 23.1204L9.26562 23.7316L10.0153 23.9862Z" fill="#78CBF3"/>
<path d="M11.6195 19.5329C11.783 19.297 11.9491 19.0744 12.1041 18.8946C12.8937 17.9789 13.4233 17.4805 14.5136 16.9084C15.313 16.489 15.8167 16.3278 16.709 16.1445C17.2677 16.0297 18.0255 15.9967 18.5632 15.9892C19.005 15.983 19.4696 15.954 19.8682 16.1445C20.1614 16.2846 20.2492 16.647 20.1733 16.963L20.0217 17.5937C19.9201 18.0167 19.7491 18.4199 19.5157 18.787L19 19.5982C18.6528 20.1444 18.2228 20.6332 17.7253 21.0472C17.0898 21.5761 16.3562 21.9752 15.5625 22.2064C14.9639 22.3809 14.2538 22.5811 13.7105 22.7142C12.3715 23.0421 10.3906 23.2235 10.3906 23.2235C10.5074 21.9106 10.8684 20.6159 11.6195 19.5329Z" fill="#78CBF3"/>
<path d="M17.9168 16.9332L19.0102 16.9072L18.8867 17.3066C18.7906 17.6175 18.6933 17.9282 18.5723 18.2304C18.4733 18.4776 18.3417 18.7762 18.2068 18.9953C17.6159 19.9546 17.0468 20.4145 16.0114 20.9305C15.9003 20.9859 15.7731 21.0396 15.6407 21.0902C14.9048 21.3711 14.1391 21.569 13.3755 21.7621C13.249 21.7941 13.1253 21.8235 13.0128 21.8472C12.3316 21.9912 11.2461 22.1019 11.2461 22.1019C11.2461 22.1019 11.4373 21.7272 11.5674 21.4907L11.5738 21.479C11.7775 21.1102 12.0137 20.7606 12.2635 20.4213L13.0128 19.3518C13.154 19.1942 13.3607 18.9927 13.5586 18.8073C13.9379 18.4517 14.3621 18.1486 14.809 17.883L14.9913 17.7746C15.2782 17.6041 15.5788 17.4578 15.89 17.3372C16.5372 17.0864 17.2229 16.9497 17.9168 16.9332Z" fill="#D5EFFB"/>
<path d="M9.90529 1.06934H10.4943L11.1904 1.17119L11.6723 1.32398L12.1007 1.57862L12.4755 1.88418L12.9039 2.44439L13.1716 2.95367L13.3858 3.36109L13.4929 3.81945V4.2778L13.4393 4.78708L13.3858 5.29636C13.3858 5.29636 13.2905 6.04813 13.1716 6.51863C13.1004 6.80019 12.9574 7.23162 12.9574 7.23162L12.7432 7.68997L12.529 8.19925C12.529 8.19925 12.3709 8.5121 12.2613 8.70853C11.9133 9.33241 11.6659 9.6552 11.2439 10.2364C11.0012 10.5707 10.6588 11.0004 10.4158 11.3004C10.261 11.4914 9.97283 11.4954 9.81254 11.309C9.68389 11.1595 9.53793 10.9878 9.42338 10.8475C9.12069 10.4768 8.67374 9.87987 8.67374 9.87987C8.67374 9.87987 8.44149 9.50948 8.29892 9.26874C8.17033 9.05161 7.97765 8.70853 7.97765 8.70853L7.54928 7.68997L7.28155 7.07884L7.12091 6.51863C7.12091 6.51863 6.87029 5.81523 6.79964 5.34729C6.74309 4.97272 6.74609 4.37965 6.74609 4.37965C6.74609 4.37965 6.76845 3.94423 6.79964 3.66666C6.83107 3.38699 6.90673 2.95367 6.90673 2.95367C6.90673 2.95367 7.10936 2.56506 7.28155 2.34254C7.43081 2.14965 7.70992 1.88418 7.70992 1.88418C7.70992 1.88418 8.17249 1.52854 8.5131 1.3749C8.73425 1.27515 9.10211 1.17119 9.10211 1.17119L9.90529 1.06934Z" fill="#D5EFFB"/>
<path d="M15.1356 3.33291L14.5657 3.51358L14.6193 4.2775L14.5657 5.1942L14.5304 5.41836C14.447 5.94722 14.3242 6.46913 14.1632 6.97973C13.8971 7.82328 13.5281 8.63083 13.0645 9.38411L12.9582 9.55678C12.6382 10.0768 12.2801 10.5725 11.887 11.0399L11.8349 11.1018L11.1388 11.9167L10.8711 12.2732L13.1736 11.5602L13.7647 11.2859C14.832 10.7907 15.8528 10.2007 16.8147 9.52308L16.921 9.4283C17.4198 8.98351 17.8689 8.48594 18.2604 7.94431L18.5817 7.3841L18.8494 6.72204L18.9388 6.3818C18.9861 6.20195 19.01 6.01676 19.01 5.8308C19.01 5.64484 18.9861 5.45965 18.9388 5.27979L18.9085 5.1643C18.8692 5.01483 18.8154 4.86954 18.748 4.7305L18.7288 4.69101C18.5965 4.41835 18.4086 4.17641 18.1771 3.98075C18.09 3.90708 17.9972 3.84039 17.8996 3.78131L17.8242 3.73571C17.5806 3.58825 17.3188 3.47307 17.0455 3.39308L16.7611 3.30986L16.398 3.24707C16.2477 3.22108 16.0954 3.20801 15.9429 3.20801C15.669 3.20801 15.3967 3.25013 15.1356 3.33291Z" fill="#D5EFFB"/>
<path d="M5.24211 3.38412L5.81525 3.56361L5.76135 4.32321L5.81525 5.23473C5.92281 5.90847 6.09297 6.57071 6.3235 7.21285L6.34045 7.26007C6.57705 7.91912 6.87329 8.55521 7.22547 9.16042L7.41557 9.4871C7.74943 10.0608 8.13382 10.6036 8.56416 11.109L9.26487 11.9192L9.48047 12.2231L8.27008 11.8711C7.56874 11.6672 6.88332 11.412 6.21934 11.1077C5.41255 10.7379 4.64034 10.297 3.9119 9.79002L3.55143 9.53915L3.44245 9.44316C2.94165 9.00206 2.49023 8.50788 2.09613 7.96931L1.77272 7.41226L1.50322 6.75394L1.41314 6.41541C1.3656 6.23674 1.34152 6.05263 1.34152 5.86774C1.34152 5.68284 1.3656 5.49874 1.41314 5.32006L1.44341 5.20632C1.48319 5.05683 1.53758 4.9116 1.60579 4.77275L1.62327 4.73716C1.75735 4.46423 1.94722 4.2225 2.18061 4.02759C2.26789 3.9547 2.36075 3.88878 2.45834 3.83043L2.53579 3.78413C2.78066 3.63772 3.04338 3.5235 3.31746 3.44427L3.60533 3.36105L3.97081 3.29861C4.12216 3.27276 4.27542 3.25977 4.42896 3.25977C4.70474 3.25977 4.97893 3.3017 5.24211 3.38412Z" fill="#D5EFFB"/>
</svg>
