<svg width="146" height="70" viewBox="0 0 146 70" fill="none" xmlns="http://www.w3.org/2000/svg">
<path d="M7.61453 43.2268V40.6268H12.1345C12.9612 40.6268 13.6812 40.4934 14.2945 40.2268C14.9079 39.9601 15.3745 39.5734 15.6945 39.0668C16.0412 38.5601 16.2145 37.9601 16.2145 37.2668C16.2145 36.2001 15.8412 35.3868 15.0945 34.8268C14.3745 34.2668 13.3879 33.9868 12.1345 33.9868H9.05453V52.8668H12.7345C13.6945 52.8668 14.5612 52.7334 15.3345 52.4668C16.1079 52.1734 16.7079 51.7201 17.1345 51.1068C17.5879 50.4934 17.8145 49.7068 17.8145 48.7468C17.8145 48.0534 17.6812 47.4668 17.4145 46.9868C17.1745 46.4801 16.8145 46.0668 16.3345 45.7468C15.8812 45.4001 15.3479 45.1601 14.7345 45.0268C14.1212 44.8668 13.4545 44.7868 12.7345 44.7868H7.61453V41.6668H13.2545C14.6145 41.6668 15.9079 41.8134 17.1345 42.1068C18.3879 42.4001 19.5079 42.8668 20.4945 43.5068C21.4812 44.1201 22.2545 44.9201 22.8145 45.9068C23.4012 46.8934 23.6945 48.0801 23.6945 49.4668C23.6945 51.3068 23.2545 52.8134 22.3745 53.9868C21.5212 55.1601 20.3079 56.0268 18.7345 56.5868C17.1612 57.1468 15.3345 57.4268 13.2545 57.4268H3.33453V29.4268H12.6545C14.5212 29.4268 16.1612 29.6934 17.5745 30.2268C18.9879 30.7334 20.0945 31.5068 20.8945 32.5468C21.6945 33.5868 22.0945 34.9068 22.0945 36.5068C22.0945 37.9201 21.6945 39.1334 20.8945 40.1468C20.0945 41.1601 18.9879 41.9334 17.5745 42.4668C16.1612 42.9734 14.5212 43.2268 12.6545 43.2268H7.61453ZM34.9689 51.7068C34.9689 52.2401 35.1022 52.7068 35.3689 53.1068C35.6356 53.4801 35.9956 53.7734 36.4489 53.9868C36.9289 54.1734 37.4489 54.2668 38.0089 54.2668C38.8089 54.2668 39.5289 54.1068 40.1689 53.7868C40.8089 53.4401 41.3289 52.9601 41.7289 52.3468C42.1289 51.7068 42.3289 50.9468 42.3289 50.0668L42.9689 52.4668C42.9689 53.6401 42.6356 54.6268 41.9689 55.4268C41.3289 56.2268 40.4889 56.8268 39.4489 57.2268C38.4356 57.6268 37.3689 57.8268 36.2489 57.8268C35.1022 57.8268 34.0356 57.6001 33.0489 57.1468C32.0622 56.6934 31.2622 56.0401 30.6489 55.1868C30.0622 54.3068 29.7689 53.2401 29.7689 51.9868C29.7689 50.2001 30.3956 48.7868 31.6489 47.7468C32.9022 46.7068 34.6756 46.1868 36.9689 46.1868C38.1422 46.1868 39.1689 46.3068 40.0489 46.5468C40.9556 46.7868 41.7156 47.0801 42.3289 47.4268C42.9422 47.7734 43.3822 48.1068 43.6489 48.4268V50.8268C42.9289 50.2934 42.1156 49.8934 41.2089 49.6268C40.3289 49.3601 39.3956 49.2268 38.4089 49.2268C37.6089 49.2268 36.9556 49.3334 36.4489 49.5468C35.9422 49.7334 35.5689 50.0134 35.3289 50.3868C35.0889 50.7334 34.9689 51.1734 34.9689 51.7068ZM32.9689 44.2268L31.0489 40.7068C32.0089 40.2001 33.1822 39.7201 34.5689 39.2668C35.9556 38.7868 37.5022 38.5468 39.2089 38.5468C40.7822 38.5468 42.1822 38.7734 43.4089 39.2268C44.6356 39.6801 45.5956 40.3468 46.2889 41.2268C46.9822 42.0801 47.3289 43.1334 47.3289 44.3868V57.4268H42.3289V45.4668C42.3289 44.9601 42.2489 44.5334 42.0889 44.1868C41.9289 43.8134 41.6756 43.5068 41.3289 43.2668C41.0089 43.0268 40.6222 42.8534 40.1689 42.7468C39.7156 42.6401 39.2089 42.5868 38.6489 42.5868C37.7956 42.5868 36.9822 42.6801 36.2089 42.8668C35.4356 43.0534 34.7689 43.2801 34.2089 43.5468C33.6489 43.8134 33.2356 44.0401 32.9689 44.2268ZM55.3483 26.2268H60.5483V57.4268H55.3483V26.2268ZM68.8608 26.2268H74.0608V57.4268H68.8608V26.2268ZM81.1333 48.2268C81.1333 46.3068 81.5733 44.6268 82.4533 43.1868C83.36 41.7468 84.5733 40.6268 86.0933 39.8268C87.64 39.0268 89.3866 38.6268 91.3333 38.6268C93.28 38.6268 95.0133 39.0268 96.5333 39.8268C98.08 40.6268 99.2933 41.7468 100.173 43.1868C101.08 44.6268 101.533 46.3068 101.533 48.2268C101.533 50.1201 101.08 51.8001 100.173 53.2668C99.2933 54.7068 98.08 55.8268 96.5333 56.6268C95.0133 57.4268 93.28 57.8268 91.3333 57.8268C89.3866 57.8268 87.64 57.4268 86.0933 56.6268C84.5733 55.8268 83.36 54.7068 82.4533 53.2668C81.5733 51.8001 81.1333 50.1201 81.1333 48.2268ZM86.4133 48.2268C86.4133 49.2668 86.6266 50.1868 87.0533 50.9868C87.5066 51.7601 88.1066 52.3734 88.8533 52.8268C89.6 53.2534 90.4266 53.4668 91.3333 53.4668C92.24 53.4668 93.0666 53.2534 93.8133 52.8268C94.56 52.3734 95.1466 51.7601 95.5733 50.9868C96.0266 50.1868 96.2533 49.2668 96.2533 48.2268C96.2533 47.1868 96.0266 46.2668 95.5733 45.4668C95.1466 44.6668 94.56 44.0534 93.8133 43.6268C93.0666 43.2001 92.24 42.9868 91.3333 42.9868C90.4266 42.9868 89.6 43.2001 88.8533 43.6268C88.1066 44.0534 87.5066 44.6668 87.0533 45.4668C86.6266 46.2668 86.4133 47.1868 86.4133 48.2268ZM113.7 39.0268V57.4268H108.62V39.0268H113.7ZM119.1 44.4268C118.753 44.1068 118.393 43.8668 118.02 43.7068C117.673 43.5201 117.233 43.4268 116.7 43.4268C116.06 43.4268 115.513 43.6001 115.06 43.9468C114.607 44.2934 114.26 44.7868 114.02 45.4268C113.807 46.0401 113.7 46.7868 113.7 47.6668L112.26 46.2268C112.26 44.7601 112.54 43.4668 113.1 42.3468C113.66 41.2001 114.393 40.2934 115.3 39.6268C116.207 38.9334 117.14 38.5868 118.1 38.5868C118.767 38.5868 119.393 38.7068 119.98 38.9468C120.593 39.1868 121.087 39.5468 121.46 40.0268L119.1 44.4268ZM131.086 51.7068C131.086 52.2401 131.219 52.7068 131.486 53.1068C131.753 53.4801 132.113 53.7734 132.566 53.9868C133.046 54.1734 133.566 54.2668 134.126 54.2668C134.926 54.2668 135.646 54.1068 136.286 53.7868C136.926 53.4401 137.446 52.9601 137.846 52.3468C138.246 51.7068 138.446 50.9468 138.446 50.0668L139.086 52.4668C139.086 53.6401 138.753 54.6268 138.086 55.4268C137.446 56.2268 136.606 56.8268 135.566 57.2268C134.553 57.6268 133.486 57.8268 132.366 57.8268C131.219 57.8268 130.153 57.6001 129.166 57.1468C128.179 56.6934 127.379 56.0401 126.766 55.1868C126.179 54.3068 125.886 53.2401 125.886 51.9868C125.886 50.2001 126.513 48.7868 127.766 47.7468C129.019 46.7068 130.793 46.1868 133.086 46.1868C134.259 46.1868 135.286 46.3068 136.166 46.5468C137.073 46.7868 137.833 47.0801 138.446 47.4268C139.059 47.7734 139.499 48.1068 139.766 48.4268V50.8268C139.046 50.2934 138.233 49.8934 137.326 49.6268C136.446 49.3601 135.513 49.2268 134.526 49.2268C133.726 49.2268 133.073 49.3334 132.566 49.5468C132.059 49.7334 131.686 50.0134 131.446 50.3868C131.206 50.7334 131.086 51.1734 131.086 51.7068ZM129.086 44.2268L127.166 40.7068C128.126 40.2001 129.299 39.7201 130.686 39.2668C132.073 38.7868 133.619 38.5468 135.326 38.5468C136.899 38.5468 138.299 38.7734 139.526 39.2268C140.753 39.6801 141.713 40.3468 142.406 41.2268C143.099 42.0801 143.446 43.1334 143.446 44.3868V57.4268H138.446V45.4668C138.446 44.9601 138.366 44.5334 138.206 44.1868C138.046 43.8134 137.793 43.5068 137.446 43.2668C137.126 43.0268 136.739 42.8534 136.286 42.7468C135.833 42.6401 135.326 42.5868 134.766 42.5868C133.913 42.5868 133.099 42.6801 132.326 42.8668C131.553 43.0534 130.886 43.2801 130.326 43.5468C129.766 43.8134 129.353 44.0401 129.086 44.2268Z" fill="white"/>
<path d="M110.797 18.0834L109.452 16.4782L108.966 15.7421C108.184 14.5544 107.524 13.29 106.998 11.9685L106.888 11.6628C106.487 10.5437 106.18 9.39319 105.969 8.2232L105.877 6.84647C105.833 6.18887 105.895 5.52848 106.06 4.89046L106.15 4.54216C106.343 3.79721 106.715 3.11076 107.234 2.54267C107.498 2.25424 107.796 1.99966 108.122 1.7848L108.732 1.38361C109.157 1.1037 109.618 0.882745 110.103 0.726783C110.564 0.578344 111.042 0.490054 111.526 0.464102L112.222 0.426758C113.168 0.426758 114.109 0.55086 115.023 0.795886L115.071 0.808936L115.15 0.840668C115.727 1.07273 116.262 1.39768 116.734 1.8026L117.104 2.13252C117.54 2.52191 117.917 2.97385 118.222 3.47361C118.443 3.83631 118.624 4.2217 118.762 4.62314L118.771 4.64718C118.994 5.29413 119.108 5.97376 119.108 6.65817V7.44265C119.108 8.66755 118.9 9.8836 118.494 11.0391L118.277 11.6557C117.883 12.7773 117.353 13.8468 116.701 14.8407L116.405 15.2909C115.886 16.0814 115.309 16.8322 114.678 17.5371L114.122 18.1598L113.647 18.7713L112.362 17.9408L112.388 17.908L111.351 18.6949L110.797 18.0834Z" fill="white"/>
<path d="M101.191 4.26607L101.24 4.24666C101.752 4.0442 102.289 3.90828 102.836 3.84224L103.278 3.78884L103.674 3.77147C104.562 3.73247 105.45 3.86822 106.286 4.17102L105.89 5.77617C105.369 5.52463 104.798 5.39399 104.22 5.39399H103.987C103.159 5.39399 102.344 5.6055 101.621 6.00847L101.203 6.24117C100.848 6.43908 100.532 6.70001 100.27 7.01117C99.8568 7.50237 99.5933 8.10192 99.5109 8.73854L99.5077 8.76282C99.4367 9.31145 99.4993 9.86911 99.6901 10.3884L99.9063 10.9768C100.147 11.6322 100.501 12.2404 100.951 12.7741L101.24 13.117C101.752 13.7235 102.346 14.2557 103.005 14.6983L104.121 15.4484C105.14 16.1325 106.225 16.7115 107.36 17.1765L108.265 17.5473L111.352 18.6938L110.243 19.9932L108.74 19.3817L105.336 18.0823L105.108 17.9831C104.207 17.5915 103.343 17.1174 102.529 16.5671L102.389 16.4722C101.716 16.0177 101.085 15.5058 100.501 14.9421L100.103 14.5571C99.6353 14.1059 99.2187 13.6052 98.8599 13.0639L98.7058 12.8314C98.3261 12.2585 98.0323 11.6332 97.8335 10.9752L97.7668 10.7544C97.6422 10.3417 97.5693 9.91516 97.55 9.4845L97.5444 9.36204C97.5151 8.71133 97.6236 8.06177 97.8626 7.45585C98.0419 7.00137 98.292 6.57815 98.6037 6.20192L98.7371 6.0409C98.9672 5.76307 99.2222 5.5068 99.4989 5.27525L99.5115 5.2647C100.014 4.84405 100.581 4.50688 101.191 4.26607Z" fill="white"/>
<path d="M123.907 4.18477L123.877 4.17263C123.377 3.96879 122.852 3.83173 122.315 3.76499L121.895 3.71267C120.783 3.66233 119.671 3.8445 118.633 4.24772L119.029 5.69999L119.418 5.57355C119.941 5.40411 120.486 5.31782 121.035 5.31782H121.072C121.963 5.31782 122.839 5.55151 123.612 5.99559L123.893 6.15681C124.246 6.36012 124.56 6.62646 124.818 6.94268C125.215 7.42927 125.467 8.01777 125.545 8.64087L125.552 8.69074C125.62 9.23714 125.56 9.79201 125.375 10.3107L125.168 10.8923C124.932 11.5533 124.584 12.1689 124.14 12.7121L123.669 13.2873C123.306 13.7317 122.908 14.1469 122.466 14.5145C122.143 14.7838 121.755 15.0979 121.435 15.3309C120.769 15.8143 120.385 16.0773 119.662 16.4774C118.69 17.0155 118.088 17.2163 117.05 17.624C115.746 18.1361 113.567 18.7705 113.567 18.7705L114.596 19.7642L116.753 19.1527L119.899 18.0061L120.108 17.9128C120.99 17.5173 121.834 17.0399 122.627 16.4868L122.746 16.4042C123.405 15.9443 124.024 15.4277 124.593 14.8603L124.964 14.4908C125.424 14.0331 125.833 13.5269 126.184 12.9812L126.323 12.7647C126.695 12.1854 126.982 11.5557 127.176 10.8949L127.239 10.6798C127.36 10.266 127.431 9.83907 127.45 9.4083L127.455 9.27608C127.484 8.63142 127.379 7.98785 127.149 7.38517C126.973 6.92697 126.728 6.49891 126.42 6.11645L126.302 5.9686C126.076 5.6882 125.825 5.4282 125.553 5.19319C125.063 4.77036 124.506 4.42893 123.907 4.18477Z" fill="white"/>
<path d="M109.61 20.5295L112.222 17.7778H112.697L115.388 20.5295L116.048 21.3629C116.287 21.6647 116.417 22.0383 116.417 22.4232C116.417 22.7344 116.332 23.0398 116.171 23.3062L116.132 23.3708C115.956 23.6627 115.707 23.9042 115.41 24.0716L115.388 24.0841C115.077 24.2592 114.726 24.3512 114.369 24.3512H113.568H111.826H110.605C110.263 24.3512 109.925 24.274 109.617 24.1253L109.432 24.0361C109.136 23.8929 108.89 23.6625 108.728 23.3758C108.58 23.1141 108.508 22.8163 108.521 22.5159L108.523 22.4477C108.54 22.046 108.686 21.6605 108.94 21.3492L109.61 20.5295Z" fill="white"/>
<path d="M112.458 19.5361L114.378 22.7464H110.539L112.458 19.5361Z" fill="#A5DCF7"/>
<path d="M112.301 36.4267L112.856 35.2802L113.014 34.2865L113.369 33.0214L113.251 32.5285V28.7831V24.2734H111.747V28.936V31.2291V32.5285V33.5222V34.3629L111.589 35.1273L111.193 36.0445L112.301 36.4267Z" fill="white"/>
<path d="M114.681 29.7318C114.92 29.3815 115.163 29.0511 115.39 28.7838C116.558 27.4094 117.34 26.6615 118.952 25.8028C120.134 25.1733 120.878 24.9314 122.197 24.6563C123.023 24.4841 124.143 24.4346 124.937 24.4233C125.591 24.414 126.279 24.3709 126.867 24.6563C127.303 24.8675 127.431 25.4071 127.32 25.8778L127.095 26.8302C126.944 27.4659 126.69 28.0726 126.344 28.6263L125.576 29.8526C125.068 30.6639 124.437 31.3914 123.706 32.0092C122.763 32.8064 121.67 33.4093 120.485 33.7595C119.604 34.0201 118.563 34.3181 117.765 34.5165C115.786 35.0087 112.857 35.2809 112.857 35.2809C113.03 33.31 113.564 31.3648 114.681 29.7318Z" fill="white"/>
<path d="M123.991 25.8411L125.602 25.8022L125.347 26.6404C125.253 26.9479 125.157 27.2546 125.044 27.5555C124.894 27.9552 124.658 28.5346 124.414 28.9361C123.541 30.3759 122.7 31.0661 121.169 31.8407C120.861 31.9964 120.47 32.1436 120.101 32.2665C119.344 32.5191 118.574 32.7305 117.806 32.9454C117.447 33.0456 117.061 33.147 116.737 33.2165C115.73 33.4326 114.125 33.5987 114.125 33.5987C114.125 33.5987 114.408 33.0363 114.6 32.6815L114.61 32.6626C114.911 32.1101 115.26 31.5855 115.629 31.0763L116.737 29.4712C116.946 29.2335 117.254 28.9293 117.548 28.6499C118.105 28.1192 118.73 27.6658 119.39 27.268L119.665 27.1021C120.086 26.8475 120.529 26.6288 120.987 26.4484C121.945 26.0715 122.962 25.866 123.991 25.8411Z" fill="#A5DCF7"/>
<path d="M112.145 2.03174H113.015L114.044 2.18461L114.757 2.41392L115.39 2.79609L115.944 3.25471L116.577 4.0955L116.973 4.85986L117.289 5.47134L117.448 6.15926V6.84719L117.369 7.61154L117.289 8.3759C117.289 8.3759 117.149 9.5042 116.973 10.2104C116.868 10.6329 116.656 11.2805 116.656 11.2805L116.34 11.9684L116.023 12.7327C116.023 12.7327 115.789 13.2023 115.627 13.4971C115.113 14.4334 114.747 14.9179 114.123 15.7902C113.715 16.361 113.116 17.1174 112.76 17.5613C112.604 17.7548 112.313 17.7588 112.152 17.5699C111.935 17.3155 111.646 16.9737 111.432 16.7074C110.985 16.151 110.324 15.2551 110.324 15.2551C110.324 15.2551 109.981 14.6992 109.77 14.3379C109.58 14.012 109.295 13.4971 109.295 13.4971L108.662 11.9684L108.266 11.0511L108.029 10.2104C108.029 10.2104 107.658 9.15466 107.554 8.45233C107.47 7.89017 107.475 7.00006 107.475 7.00006C107.475 7.00006 107.508 6.34655 107.554 5.92996C107.6 5.51021 107.712 4.85986 107.712 4.85986C107.712 4.85986 108.012 4.27662 108.266 3.94263C108.487 3.65314 108.899 3.25471 108.899 3.25471C108.899 3.25471 109.583 2.72094 110.087 2.49035C110.414 2.34064 110.957 2.18461 110.957 2.18461L112.145 2.03174Z" fill="#A5DCF7"/>
<path d="M119.873 5.42935L119.03 5.7008L119.109 6.84734L119.03 8.22318L118.977 8.56348C118.854 9.35468 118.673 10.1358 118.436 10.9004C118.042 12.1683 117.495 13.3834 116.806 14.5187L116.656 14.767C116.181 15.5501 115.65 16.2972 115.065 17.0023L114.993 17.0897L113.964 18.3127L113.568 18.8477L116.972 17.7776L118.578 17.0211C119.668 16.5074 120.71 15.8961 121.691 15.1947L122.354 14.7202L122.508 14.5812C123.248 13.9115 123.913 13.1636 124.491 12.3507L124.966 11.5099L125.362 10.5162L125.494 10.006C125.564 9.73577 125.599 9.45776 125.599 9.17862C125.599 8.89949 125.564 8.62148 125.494 8.35125L125.449 8.17589C125.391 7.95315 125.312 7.73648 125.213 7.52888L125.181 7.46283C124.987 7.05696 124.711 6.69601 124.369 6.40301C124.24 6.29174 124.102 6.19092 123.956 6.10149L123.848 6.03488C123.487 5.81312 123.098 5.6397 122.692 5.51906L122.275 5.39506L121.738 5.30081C121.516 5.2618 121.291 5.24219 121.065 5.24219C120.661 5.24219 120.258 5.30533 119.873 5.42935Z" fill="#A5DCF7"/>
<path d="M105.248 5.50519L106.096 5.77487L106.016 6.91493L106.096 8.283C106.255 9.29424 106.506 10.2887 106.848 11.2538L106.871 11.3201C107.222 12.311 107.661 13.2683 108.183 14.1802L108.463 14.6685C108.955 15.5274 109.523 16.3409 110.159 17.0994L111.195 18.3155L111.514 18.7715L109.593 18.2045C108.644 17.9242 107.717 17.5738 106.819 17.1562L106.533 17.0232C105.447 16.5177 104.408 15.9156 103.43 15.2241L102.749 14.7433L102.592 14.6025C101.849 13.9383 101.181 13.1955 100.598 12.3872L100.12 11.5512L99.7216 10.5631L99.5885 10.0554C99.5182 9.78696 99.4826 9.51058 99.4826 9.23304C99.4826 8.95551 99.5182 8.67913 99.5885 8.41066L99.6338 8.23791C99.6922 8.01515 99.7721 7.79859 99.8724 7.5913L99.9015 7.53106C100.098 7.1248 100.377 6.76415 100.722 6.47227C100.852 6.36219 100.99 6.26253 101.135 6.17421L101.247 6.10651C101.61 5.88636 101.999 5.71436 102.406 5.59488L102.829 5.47086L103.369 5.37715C103.593 5.33835 103.82 5.31885 104.047 5.31885C104.454 5.31885 104.859 5.3817 105.248 5.50519Z" fill="#A5DCF7"/>
</svg>
